<svg width="55" height="48" viewBox="0 0 55 48" fill="none" xmlns="http://www.w3.org/2000/svg">
<path d="M13.0388 23.6576C16.4372 21.7854 20.1014 21.6391 22.1667 25.3878C22.5721 26.1235 22.9302 27.0223 23.199 27.9246L25.0803 34.2407C25.8673 36.9126 26.6659 38.5278 27.2799 39.5596L22.8655 41.9916C22.4866 41.4696 22.0234 40.6288 21.5352 39.1624C21.6315 41.5754 20.6412 43.6738 18.2938 44.967C15.6312 46.4339 12.8743 45.989 11.1371 42.8359C9.32275 39.5426 10.3246 36.3875 14.1113 33.4793C17.4969 30.8377 18.124 30.4009 17.8795 29.2111L17.8145 28.9273C17.7301 28.6084 17.63 28.3439 17.4949 28.0986C16.9545 27.1176 16.1237 26.936 14.8624 27.6309C13.391 28.4415 13.2779 29.6455 13.8276 31.3064L9.30813 33.7964C7.67186 29.5829 8.72955 26.0318 13.0388 23.6576ZM18.3078 39.9357C19.569 39.2409 20.4092 37.8646 19.8924 35.6832L19.2777 33.7384C18.8873 34.2732 18.213 34.873 17.1026 35.7588C15.3687 37.1707 15.0505 38.1681 15.6874 39.3242C16.1893 40.2352 17.0465 40.6306 18.3078 39.9357ZM30.1383 37.9848L21.8472 10.5844L26.6821 7.92079L34.9731 35.3212L30.1383 37.9848ZM46.1101 29.6421C42.4315 31.6688 38.4184 31.5963 36.3724 27.8826C36.0442 27.287 35.8055 26.6879 35.5789 25.945L33.7433 19.8776C32.4645 15.6499 33.7781 12.2317 37.8071 10.012C41.4858 7.98536 45.4989 8.05785 47.5449 11.7715C47.873 12.3671 48.1118 12.9663 48.3384 13.7092L50.174 19.7765C51.4528 24.0042 50.1391 27.4224 46.1101 29.6421ZM44.0113 25.5009C45.3426 24.7674 45.6923 23.6614 45.2777 22.2457L43.2698 15.4512C43.2277 15.2918 43.1083 14.9922 42.9925 14.782C42.3941 13.6959 41.2373 13.4198 39.906 14.1533C38.5747 14.8868 38.26 15.9735 38.6746 17.3892L40.6825 24.1837C40.7246 24.3431 40.8247 24.6077 40.9598 24.8529C41.5582 25.939 42.6449 26.2536 44.0113 25.5009Z" fill="white"/>
</svg>
