<svg width="29" height="80" viewBox="0 0 29 80" fill="none" xmlns="http://www.w3.org/2000/svg">
<path d="M28.4004 79.0518L0.400388 73.0918L0.400388 65.0518C0.400388 60.3318 2.36039 57.7718 5.92039 57.7718C6.48039 57.7718 7.12039 57.8118 7.80039 57.9718L8.36039 58.0918C11.4004 58.7318 13.0804 60.1718 13.8804 62.8518L14.0004 62.8518C14.5604 60.9718 16.3604 59.8918 18.6804 59.8918C19.2404 59.8918 19.8404 59.9718 20.4404 60.0918L21.0004 60.2118C26.3204 61.3318 28.4004 64.1718 28.4004 69.8918L28.4004 79.0518ZM11.5604 69.7718L11.5604 67.8518C11.5604 65.5718 10.6804 64.3318 8.72039 63.8918L8.16039 63.7718C7.76039 63.6918 7.40039 63.6518 7.08039 63.6518C5.84039 63.6518 5.28039 64.3718 5.28039 65.9718L5.28039 68.4118L11.5604 69.7718ZM23.5204 72.2918L23.5204 69.3718C23.5204 67.3718 22.6404 66.2918 20.6404 65.8518L19.8804 65.6918C19.3604 65.5718 18.8804 65.5318 18.4804 65.5318C16.9604 65.5318 16.4404 66.4118 16.4404 68.5718L16.4404 70.8118L23.5204 72.2918ZM28.8004 49.4696C28.8004 53.8696 26.7204 57.3496 22.1204 57.3496C21.4404 57.3496 20.6804 57.2696 19.9204 57.1096L7.16039 54.3896C2.52039 53.3896 0.00038785 50.5096 0.000387638 45.6696C0.000387446 41.2696 2.08039 37.7896 6.64039 37.7896C7.32039 37.7896 8.16039 37.8696 8.88039 38.0296L10.1204 38.3096L10.1204 43.6696L8.12039 43.2296C7.92039 43.1896 7.56039 43.1096 7.12039 43.1096C5.60039 43.1096 4.72039 44.0696 4.72039 45.6296C4.72039 47.2696 5.68039 48.3496 7.56039 48.7496L20.6804 51.5496C21.0404 51.6296 21.4004 51.6696 21.7204 51.6696C23.2004 51.6696 24.0804 50.7496 24.0804 49.1896C24.0804 47.5096 23.0804 46.4696 21.2404 46.0696L17.8804 45.3096L17.8804 39.9496L21.6404 40.7496C26.2804 41.7496 28.8004 44.6296 28.8004 49.4696ZM0.400387 28.4974L0.400386 20.9374L28.4004 21.0974L28.4004 26.5774L23.3204 26.4174L23.3204 32.6974L28.4004 34.6974L28.4004 40.2574L0.400387 28.4974ZM18.5204 30.8174L18.5204 26.2974L6.00039 25.8974L18.5204 30.8174ZM0.400386 7.55992L0.400385 -7.9159e-05L28.4004 0.159919L28.4004 5.63992L23.3204 5.47992L23.3204 11.7599L28.4004 13.7599L28.4004 19.3199L0.400386 7.55992ZM18.5204 9.87992L18.5204 5.35992L6.00039 4.95992L18.5204 9.87992Z" fill="white"/>
</svg>
