<svg width="119" height="370" viewBox="0 0 119 370" fill="none" xmlns="http://www.w3.org/2000/svg">
<path fill-rule="evenodd" clip-rule="evenodd" d="M26.2533 74.3263C26.8558 80.348 26.6148 93.4752 20.8299 97.8109C13.5988 103.23 -0.863417 110.456 0.0404719 161.038V355.238C17.2144 366.378 64.9398 381.974 118.45 355.238V161.038C120.258 143.275 118.631 105.759 97.6606 97.8109C94.949 95.4022 90.068 87.3331 92.2373 74.3263C81.6918 76.4339 53.7314 79.3845 26.2533 74.3263ZM94.0451 172.781H25.3495L24.4456 315.495H94.0451V172.781Z" fill="#B1D471"/>
<path d="M25.3495 172.781H94.0451V315.495H24.4456L25.3495 172.781Z" fill="#CECECE"/>
<path d="M90.4295 68.6009V38.1962H77.7751V69.8721C82.3959 69.5163 86.6647 69.073 90.4295 68.6009Z" fill="#CECECE"/>
<path d="M77.7751 69.8721V38.1962H65.1206V70.5603C69.5358 70.4212 73.7865 70.1793 77.7751 69.8721Z" fill="#CECECE"/>
<path d="M65.1206 70.5603V38.1962H52.4662V70.6508C56.774 70.7297 61.0183 70.6894 65.1206 70.5603Z" fill="#CECECE"/>
<path d="M52.4662 70.6508V38.1962H39.8117V70.0563C44.0419 70.3853 48.2839 70.5742 52.4662 70.6508Z" fill="#CECECE"/>
<path d="M39.8117 70.0563V38.1962H28.0612V68.7472C31.9288 69.3205 35.865 69.7494 39.8117 70.0563Z" fill="#CECECE"/>
<path d="M19.0223 38.1962V67.1003C21.9727 67.7475 24.9954 68.2927 28.0612 68.7472V38.1962H19.0223Z" fill="#CECECE"/>
<path d="M100.372 67.1003V38.1962H90.4295V68.6009C94.3465 68.1098 97.7178 67.5875 100.372 67.1003Z" fill="#CECECE"/>
<path d="M26.2533 74.3263C53.7314 79.3845 81.6918 76.4339 92.2373 74.3263C95.2503 73.7241 101.095 71.4359 100.372 67.1003C97.7178 67.5875 94.3465 68.1098 90.4295 68.6009C86.6647 69.073 82.3959 69.5163 77.7751 69.8721C73.7865 70.1793 69.5358 70.4212 65.1206 70.5603C61.0183 70.6894 56.774 70.7297 52.4662 70.6508C48.2839 70.5742 44.0419 70.3853 39.8117 70.0563C35.865 69.7494 31.9288 69.3205 28.0612 68.7472C24.9954 68.2927 21.9727 67.7475 19.0223 67.1003C18.7209 69.509 19.7451 74.3263 26.2533 74.3263Z" fill="#CECECE"/>
<path d="M90.4295 38.1962H100.372C98.8658 34.5832 90.6103 27.5379 69.6401 28.2605C63.1321 31.8734 52.4662 30.3681 47.9467 29.1638C39.8117 28.8627 22.6378 30.2476 19.0223 38.1962H28.0612H39.8117H52.4662H65.1206H77.7751H90.4295Z" fill="#CECECE"/>
<path d="M69.6401 28.2605V9.2922H47.9467V29.1638C52.4662 30.3681 63.1321 31.8734 69.6401 28.2605Z" fill="#CECECE"/>
<path d="M69.6401 9.2922C72.0504 9.89437 76.8712 9.83415 76.8712 4.77594C76.8712 -0.282266 72.0504 -0.342483 69.6401 0.259685H47.9467C46.1389 -0.0414285 42.5234 0.440264 42.5234 4.77594C42.5234 9.11162 46.1389 9.59331 47.9467 9.2922H69.6401Z" fill="#CECECE"/>
<path d="M73 287.96L45 282L45 273.96C45 269.24 46.96 266.68 50.52 266.68C51.08 266.68 51.72 266.72 52.4 266.88L52.96 267C56 267.64 57.68 269.08 58.48 271.76L58.6 271.76C59.16 269.88 60.96 268.8 63.28 268.8C63.84 268.8 64.44 268.88 65.04 269L65.6 269.12C70.92 270.24 73 273.08 73 278.8L73 287.96ZM56.16 278.68L56.16 276.76C56.16 274.48 55.28 273.24 53.32 272.8L52.76 272.68C52.36 272.6 52 272.56 51.68 272.56C50.44 272.56 49.88 273.28 49.88 274.88L49.88 277.32L56.16 278.68ZM68.12 281.2L68.12 278.28C68.12 276.28 67.24 275.2 65.24 274.76L64.48 274.6C63.96 274.48 63.48 274.44 63.08 274.44C61.56 274.44 61.04 275.32 61.04 277.48L61.04 279.72L68.12 281.2ZM73.4 258.378C73.4 262.778 71.32 266.258 66.72 266.258C66.04 266.258 65.28 266.178 64.52 266.018L51.76 263.298C47.12 262.298 44.6 259.418 44.6 254.578C44.6 250.178 46.68 246.698 51.24 246.698C51.92 246.698 52.76 246.778 53.48 246.938L54.72 247.218L54.72 252.578L52.72 252.138C52.52 252.098 52.16 252.018 51.72 252.018C50.2 252.018 49.32 252.978 49.32 254.538C49.32 256.178 50.28 257.258 52.16 257.658L65.28 260.458C65.64 260.538 66 260.578 66.32 260.578C67.8 260.578 68.68 259.658 68.68 258.098C68.68 256.418 67.68 255.378 65.84 254.978L62.48 254.218L62.48 248.858L66.24 249.658C70.88 250.658 73.4 253.538 73.4 258.378ZM45 237.406L45 229.846L73 230.006L73 235.486L67.92 235.326L67.92 241.606L73 243.606L73 249.166L45 237.406ZM63.12 239.726L63.12 235.206L50.6 234.806L63.12 239.726ZM45 216.468L45 208.908L73 209.068L73 214.548L67.92 214.388L67.92 220.668L73 222.668L73 228.228L45 216.468ZM63.12 218.788L63.12 214.268L50.6 213.868L63.12 218.788Z" fill="white"/>
<rect x="33" y="191" width="46" height="114" fill="#CECECE"/>
</svg>
