<svg width="406" height="406" viewBox="0 0 406 406" fill="none" xmlns="http://www.w3.org/2000/svg">
<g clip-path="url(#clip0_531_2)">
<rect width="406" height="406" fill="#94B754"/>
<path d="M55.3426 366V56.185H148.73C210.693 56.185 240.346 80.9702 240.346 133.639V139.392C240.346 171.259 227.511 191.176 200.513 200.913V202.241C231.937 212.42 246.543 235.878 246.543 275.268V280.58C246.543 338.559 216.889 366 154.483 366H55.3426ZM117.306 179.668H141.206C166.876 179.668 178.383 169.489 178.383 146.917V141.163C178.383 119.476 169.089 110.181 146.959 110.181H117.306V179.668ZM117.306 312.004H154.483C175.728 312.004 184.58 302.709 184.58 280.58V272.17C184.58 243.402 174.843 233.665 144.746 233.665H117.306V312.004Z" fill="#EEEEEE"/>
<path d="M274.649 317.223C274.649 302.811 283.834 295.21 301.571 295.21L357 295.21L357 316.589L305.056 316.589C296.504 316.589 293.02 318.965 293.02 325.775C293.02 332.901 297.454 336.227 307.273 336.227L357 336.227L357 357.607L276.233 357.607L276.233 339.078L290.486 338.602C280.35 335.752 274.649 328.15 274.649 317.223ZM274.649 249.74C274.649 229.469 285.26 218.225 304.422 218.225L321.842 218.225L321.842 260.034L331.186 260.034C337.362 260.034 341.005 256.55 341.005 249.265C341.005 242.138 337.521 238.654 330.394 238.654L330.394 218.225C347.656 218.225 358.584 229.786 358.584 249.74C358.584 270.328 347.815 281.413 328.811 281.413L304.422 281.413C285.26 281.413 274.649 270.169 274.649 249.74ZM306.798 260.034L306.798 239.129L301.73 239.129C295.395 239.129 292.069 242.772 292.069 249.582C292.069 256.391 295.395 260.034 301.73 260.034L306.798 260.034ZM276.233 163.808L276.233 142.429L357 142.429L357 160.958L342.747 161.433C352.882 164.283 358.584 171.885 358.584 182.812C358.584 197.224 349.398 204.825 331.661 204.825L276.233 204.825L276.233 183.446L328.177 183.446C336.729 183.446 340.213 181.07 340.213 174.261C340.213 167.134 335.779 163.808 325.96 163.808L276.233 163.808ZM274.649 96.167C274.649 75.896 285.26 64.6519 304.422 64.6519L321.842 64.6519L321.842 106.461L331.186 106.461C337.362 106.461 341.005 102.977 341.005 95.6919C341.005 88.5654 337.521 85.0813 330.394 85.0813L330.394 64.6519C347.656 64.6519 358.584 76.2127 358.584 96.167C358.584 116.755 347.815 127.84 328.811 127.84L304.422 127.84C285.26 127.84 274.649 116.596 274.649 96.167ZM306.798 106.461L306.798 85.5564L301.73 85.5564C295.395 85.5564 292.069 89.1988 292.069 96.0086C292.069 102.818 295.395 106.461 301.73 106.461L306.798 106.461Z" fill="#EEEEEE"/>
</g>
<defs>
<clipPath id="clip0_531_2">
<rect width="406" height="406" fill="white"/>
</clipPath>
</defs>
</svg>
