<svg width="1440" height="2023" viewBox="0 0 1440 2023" fill="none" xmlns="http://www.w3.org/2000/svg">
<rect x="-82" y="1053.45" width="1659" height="969" fill="#EA9BAE"/>
<rect x="-82" y="1792.45" width="1659" height="230" fill="#D66A8A"/>
<rect x="-40" y="283.452" width="1500" height="800" fill="#EA9BAE"/>
<path fill-rule="evenodd" clip-rule="evenodd" d="M1149.76 975.295C1103.54 941.191 1042.61 881.764 1055.92 829.784C1073.52 760.997 1196.16 779.467 1217.12 712.123C1234.04 657.765 1140.07 601.433 1145.17 543.041C1149.55 492.87 1194.11 451.434 1240.72 441.949C1289.81 431.957 1340.92 473.44 1391.08 492.997C1427.28 507.111 1459.41 534.055 1496.59 541.708C1544.5 551.57 1592.36 522.55 1638.14 543.846C1683.76 565.07 1716.39 612.276 1743.86 656.745C1773.06 704.008 1813.68 759.432 1802.17 809.387C1789.59 864.005 1707.53 864.299 1684.63 913.892C1663.46 959.762 1723.95 1048.56 1680.92 1072.03C1632.09 1098.67 1566.93 993.795 1512.34 1007.87C1457.78 1021.94 1470 1139.34 1412.42 1141.26C1362.14 1142.94 1352.54 1043.79 1306.57 1014.74C1258.58 984.418 1195.77 1009.25 1149.76 975.295Z" fill="#E0839C"/>
<path fill-rule="evenodd" clip-rule="evenodd" d="M337.001 283.452C381.276 327.414 322.002 404.751 339.413 464.661C357.743 527.736 443.986 567.533 437.813 632.913C431.826 696.325 365.089 739.844 310.358 772.384C261.167 801.629 193.324 778.123 144.198 807.476C96.3837 836.047 91.9987 918.508 38.7017 934.705C-11.9268 950.091 -59.2782 899.165 -110.222 884.797C-161.436 870.352 -230.537 890.641 -264.069 849.309C-300.132 804.857 -269.427 736.746 -276.42 679.942C-281.356 639.841 -285.814 600.328 -299.404 562.274C-318.904 507.67 -389.685 462.913 -373.837 407.16C-358.854 354.451 -273.989 362.631 -232.487 326.868C-193.787 293.52 -190.174 218.905 -140.677 206.245C-89.1772 193.073 -57.5309 272.498 -5.5 283.452C43.5 283.452 96.5 283.452 140.5 283.452C208.5 283.452 255 283.452 337.001 283.452Z" fill="#E0839C"/>
</svg>
