<svg width="599" height="611" viewBox="0 0 599 611" fill="none" xmlns="http://www.w3.org/2000/svg">
<path d="M125.205 233.106V599.221C178.024 608.043 322.548 620.394 478.087 599.221V233.106C465.759 201.776 447.753 120.251 474.355 44.7889L392.921 6.53503C363.513 54.294 286.478 121.157 213.595 6.53503L125.205 44.7889C137.42 70.9157 154.522 145.157 125.205 233.106Z" fill="#B1D471"/>
<path d="M125.205 44.7889L0 172.709L88.5598 259.233L125.205 233.106C154.522 145.157 137.42 70.9157 125.205 44.7889Z" fill="#B1D471"/>
<path d="M392.921 6.53503L379.009 0C375.303 5.88273 370.731 12.1112 365.437 18.152C361.896 22.1915 358.034 26.1471 353.892 29.8593C327.487 53.5248 289.736 67.2986 251.895 29.8593C248.402 26.4039 244.909 22.5123 241.424 18.152C237.163 12.8216 232.915 6.79072 228.695 0L213.595 6.53503C286.478 121.157 363.513 54.294 392.921 6.53503Z" fill="#B1D471"/>
<path d="M365.437 18.152C343.159 24.2027 287.167 32.6736 241.424 18.152C244.909 22.5123 248.402 26.4039 251.895 29.8593C294.614 39.2251 337.692 33.7617 353.892 29.8593C358.034 26.1471 361.896 22.1915 365.437 18.152Z" fill="#B1D471"/>
<path d="M379.009 0C351.864 8.14343 283.799 19.5442 228.695 0C232.915 6.79072 237.163 12.8216 241.424 18.152C287.167 32.6736 343.159 24.2027 365.437 18.152C370.731 12.1112 375.303 5.88273 379.009 0Z" fill="#B1D471"/>
<path d="M598.203 172.709L474.355 44.7889C447.753 120.251 465.759 201.776 478.087 233.106L511.679 258.893L598.203 172.709Z" fill="#B1D471"/>
<path d="M353.892 29.8593C327.487 53.5248 289.736 67.2986 251.895 29.8593C294.614 39.2251 337.692 33.7617 353.892 29.8593Z" fill="#94B754"/>
<path d="M157.974 189.199C158.754 189.259 159.924 189.289 161.484 189.289C163.944 189.169 165.774 188.449 166.974 187.129C168.234 185.749 168.864 183.529 168.864 180.469V132.589H175.794V180.019C175.794 190.219 171.324 195.439 162.384 195.679H160.134C159.234 195.679 158.514 195.649 157.974 195.589V189.199ZM189.373 180.739C189.373 186.799 191.833 189.829 196.753 189.829C199.213 189.829 201.043 189.049 202.243 187.489C203.443 185.929 204.043 183.679 204.043 180.739V132.589H210.613V180.379C210.613 185.359 209.443 189.259 207.103 192.079C204.763 194.899 201.223 196.309 196.483 196.309C191.803 196.309 188.293 194.899 185.953 192.079C183.613 189.199 182.443 185.299 182.443 180.379V132.589H189.373V180.739ZM230.748 131.959C235.368 131.959 238.848 133.369 241.188 136.189C243.588 138.949 244.788 142.789 244.788 147.709V149.419H238.128V147.349C238.128 141.349 235.728 138.349 230.928 138.349C226.128 138.349 223.728 141.319 223.728 147.259C223.728 150.259 224.538 152.809 226.158 154.909C227.778 156.949 230.208 159.229 233.448 161.749C236.028 163.909 238.038 165.739 239.478 167.239C240.978 168.739 242.238 170.599 243.258 172.819C244.338 175.039 244.878 177.589 244.878 180.469C244.878 185.389 243.678 189.259 241.278 192.079C238.878 194.839 235.338 196.219 230.658 196.219C225.978 196.219 222.438 194.839 220.038 192.079C217.698 189.259 216.528 185.389 216.528 180.469V176.869H223.098V180.829C223.098 183.709 223.698 185.929 224.898 187.489C226.158 189.049 228.018 189.829 230.478 189.829C232.938 189.829 234.768 189.049 235.968 187.489C237.228 185.929 237.858 183.709 237.858 180.829C237.858 177.889 237.048 175.399 235.428 173.359C233.868 171.319 231.468 169.009 228.228 166.429C225.768 164.389 223.758 162.619 222.198 161.119C220.698 159.559 219.408 157.669 218.328 155.449C217.308 153.169 216.798 150.589 216.798 147.709C216.798 142.729 217.968 138.859 220.308 136.099C222.648 133.339 226.128 131.959 230.748 131.959ZM260.094 138.979H248.484V132.589H278.634V138.979H267.024V195.589H260.094V138.979ZM312.171 132.589C316.971 132.589 320.541 133.969 322.881 136.729C325.281 139.429 326.481 143.269 326.481 148.249V180.019C326.481 184.939 325.281 188.779 322.881 191.539C320.541 194.239 316.971 195.589 312.171 195.589H297.411V132.589H312.171ZM312.081 189.199C317.061 189.199 319.551 186.229 319.551 180.289V147.889C319.551 141.949 317.031 138.979 311.991 138.979H304.431V189.199H312.081ZM332.554 147.799C332.554 142.879 333.754 139.009 336.154 136.189C338.614 133.369 342.214 131.959 346.954 131.959C351.694 131.959 355.294 133.369 357.754 136.189C360.214 139.009 361.444 142.879 361.444 147.799V180.379C361.444 185.299 360.214 189.169 357.754 191.989C355.294 194.809 351.694 196.219 346.954 196.219C342.274 196.219 338.704 194.809 336.244 191.989C333.784 189.169 332.554 185.299 332.554 180.379V147.799ZM339.484 180.739C339.484 183.679 340.114 185.929 341.374 187.489C342.634 189.049 344.494 189.829 346.954 189.829C351.934 189.829 354.424 186.799 354.424 180.739V147.439C354.424 144.559 353.794 142.339 352.534 140.779C351.334 139.159 349.474 138.349 346.954 138.349C344.494 138.349 342.634 139.159 341.374 140.779C340.114 142.339 339.484 144.559 339.484 147.439V180.739ZM389.069 195.589H382.049V132.589H389.069V195.589ZM405.378 138.979H393.768V132.589H423.918V138.979H412.308V195.589H405.378V138.979ZM430.108 195.589H423.358V186.859H430.108V195.589Z" fill="white"/>
<rect x="140" y="94" width="315" height="145" fill="#B1D471"/>
</svg>
