<svg width="262" height="192" viewBox="0 0 262 192" fill="none" xmlns="http://www.w3.org/2000/svg">
<path d="M186.988 104.747C184.68 108.321 178.509 121.654 175.712 127.874C172.39 136.897 166.9 157.729 171.516 168.873L208.675 191.63C203.607 187.983 199.806 170.959 221.605 127.874C228.248 115.172 244.367 89.0306 255.696 86.0871L232.094 76.8887C226.063 75.3994 212.793 73.7875 207.968 79.254C203.597 83.6342 193.282 94.865 186.988 104.747Z" fill="#EEEEEE"/>
<path d="M140.046 82.4078C136.269 86.3922 128.574 92.0379 115.133 99.2304C118.061 102.165 123.023 106.286 129.556 110.514C140.966 117.896 157.169 125.601 175.712 127.874C178.509 121.654 184.68 108.321 186.988 104.747L178.334 96.5995C174.575 93.9714 166.638 88.5575 164.96 87.9268C163.269 87.0452 158.728 85.169 151.585 83.1344C148.754 82.328 145.514 81.4967 141.882 80.6926C141.244 81.224 140.627 81.7954 140.046 82.4078Z" fill="#EEEEEE"/>
<path d="M59.5369 86.8755C59.1173 88.5575 72.2995 111.054 78.943 122.092C78.8038 121.59 79.0831 120.71 80.1177 119.464C81.5777 117.707 84.5419 115.223 89.9573 112.05C90.6975 111.617 91.4834 111.17 92.3175 110.711C94.6373 109.434 97.3298 108.059 100.447 106.586C105.967 103.979 110.843 101.526 115.133 99.2304C128.574 92.0379 136.269 86.3922 140.046 82.4078C140.627 81.7954 141.244 81.224 141.882 80.6926C143.407 79.4227 145.052 78.3815 146.602 77.558C147.389 79.0458 149.487 82.244 151.585 83.1344C158.728 85.169 163.269 87.0452 164.96 87.9268C167.145 83.9846 168.736 70.8966 157.617 50.082C146.497 29.2673 135.85 33.3496 131.917 37.9926C136.532 32.5262 142.931 33.0868 145.553 34.0505C148.351 34.5761 155.781 39.6221 163.124 55.601C170.467 71.5799 167.407 83.8094 164.96 87.9268C166.638 88.5575 174.575 93.9714 178.334 96.5995C178.986 95.8282 179.588 95.0391 180.141 94.2342C192.415 76.3912 181.141 50.8131 173.614 39.8323C166.446 29.3199 149.067 9.18856 136.899 12.7628C136.399 12.9098 135.926 13.091 135.481 13.3041L135.002 13.5512C126.084 18.4986 128.794 37.0855 132.032 48.5051C132.342 49.5967 132.656 50.6228 132.966 51.5652C131.844 52.2628 130.638 52.7383 129.819 52.9729C114.036 58.8002 96.7791 68.5302 84.4502 76.0821C83.3613 76.7491 82.3108 77.3991 81.3032 78.0279C75.7111 81.5178 71.4387 84.3553 69.24 85.8243C66.6101 87.5813 64.5191 88.1978 62.9461 88.2314C61.1308 88.2701 60.0052 87.5326 59.5369 86.8755Z" fill="#EEEEEE"/>
<path d="M0.793776 80.5681C7.52478 97.3004 27.438 139.595 53.243 174.917C54.1171 175.18 56.7571 175.128 60.3236 172.815L83.6634 157.835C84.2588 157.563 85.0016 156.741 84.9333 155.206C84.8913 154.262 84.5423 153.048 83.6634 151.527C80.7787 146.534 70.8134 123.143 34.6236 66.3763C34.2757 65.9501 33.5688 65.4384 32.5256 65.1818C31.2098 64.8582 29.3589 64.9407 27.0184 66.1135C21.7735 68.7416 4.20284 75.049 0.793776 80.5681Z" fill="#EEEEEE"/>
<path d="M100.447 36.9414C90.7965 38.4131 79.2927 46.315 74.7471 50.082C69.0651 54.6652 58.7501 68.7117 62.9461 88.2314C64.5191 88.1978 66.6101 87.5813 69.24 85.8243C71.4387 84.3553 75.7111 81.5178 81.3032 78.0279C81.3032 76.0134 81.3032 73.4722 82.8767 70.0556C84.4502 66.6391 89.4328 58.4919 100.972 51.1332C110.203 45.2462 120.028 43.6299 123.787 43.5576C116.464 39.6698 107.088 35.9286 100.447 36.9414Z" fill="#EEEEEE"/>
<path d="M97.3002 123.932C108.21 124.773 123.35 115.337 129.556 110.514C128.71 111.13 127.872 111.702 127.044 112.232C106.496 125.643 93.8233 117.87 89.9573 112.05C84.5419 115.223 81.5777 117.707 80.1177 119.464L80.1533 119.498C82.3559 121.581 83.7365 122.886 97.3002 123.932Z" fill="#EEEEEE"/>
<path d="M257.008 89.2953C251.588 91.9053 237.601 103.748 225.014 130.239C209.279 163.354 202.461 181.613 212.688 190.355C229.177 182.104 240.588 172.007 248.247 161.251C243.419 161.514 243.371 152.578 248.616 141.803C252.812 133.183 258.456 131.378 260.754 131.553C263.696 115.291 261.015 99.9205 257.008 89.2953Z" fill="#EEEEEE"/>
<path d="M3.6786 106.586C3.59119 118.062 8.45147 143.8 28.5919 154.944C21.6862 144.168 7.03544 119.412 3.6786 106.586Z" fill="#EEEEEE"/>
<path d="M255.696 86.0871C244.367 89.0306 228.248 115.172 221.605 127.874C199.806 170.959 203.607 187.983 208.675 191.63L209.279 192C210.439 191.46 211.575 190.912 212.688 190.355C202.461 181.613 209.279 163.354 225.014 130.239C237.601 103.748 251.588 91.9053 257.008 89.2953C256.584 88.1713 256.145 87.1003 255.696 86.0871Z" fill="#D4D4D4"/>
<path d="M260.754 131.553C258.456 131.378 252.812 133.183 248.616 141.803C243.371 152.578 243.419 161.514 248.247 161.251C255.12 151.597 258.97 141.411 260.754 131.553Z" fill="#D4D4D4"/>
<path d="M136.899 12.7628C149.067 9.18856 166.446 29.3199 173.614 39.8323C181.141 50.8131 192.415 76.3912 180.141 94.2342C179.588 95.0391 178.986 95.8282 178.334 96.5995L206.394 79.254C208.929 75.049 212.688 62.4867 207.443 45.877C202.198 29.2673 189.698 14.4272 184.103 9.08342C179.82 4.87844 168.893 -2.63796 159.452 0.936274L135.481 13.3041C135.926 13.091 136.399 12.9098 136.899 12.7628Z" fill="#D4D4D4"/>
<path d="M131.917 37.9926C135.85 33.3496 146.497 29.2673 157.617 50.082C168.736 70.8966 167.145 83.9846 164.96 87.9268C167.407 83.8094 170.467 71.5799 163.124 55.601C155.781 39.6221 148.351 34.5761 145.553 34.0505C142.931 33.0868 136.532 32.5262 131.917 37.9926Z" fill="#D4D4D4"/>
<path d="M129.819 52.9729C130.638 52.7383 131.844 52.2628 132.966 51.5652C132.656 50.6228 132.342 49.5967 132.032 48.5051C130.736 47.6149 129.085 46.5619 127.196 45.4579C119.853 44.0715 109.626 48.6638 105.43 51.1332C102.458 52.8853 95.0449 58.0714 89.1706 64.7994C83.2963 71.5274 83.576 75.1245 84.4502 76.0821C96.7791 68.5302 114.036 58.8002 129.819 52.9729Z" fill="#D4D4D4"/>
<path d="M123.787 43.5576C120.028 43.6299 110.203 45.2462 100.972 51.1332C89.4328 58.4919 84.4502 66.6391 82.8767 70.0556C81.3032 73.4722 81.3032 76.0134 81.3032 78.0279C82.3108 77.3991 83.3613 76.7491 84.4502 76.0821C83.576 75.1245 83.2963 71.5274 89.1706 64.7994C95.0449 58.0714 102.458 52.8853 105.43 51.1332C109.626 48.6638 119.853 44.0715 127.196 45.4579C126.129 44.834 124.985 44.1938 123.787 43.5576Z" fill="#D4D4D4"/>
<path d="M115.133 99.2304C110.843 101.526 105.967 103.979 100.447 106.586C97.3298 108.059 94.6373 109.434 92.3175 110.711C96.8214 115.993 109.825 123.255 127.044 112.232C127.869 111.694 128.706 111.122 129.556 110.514C123.023 106.286 118.061 102.165 115.133 99.2304Z" fill="#D4D4D4"/>
<path d="M79.2053 128.137L49.5715 77.1515C46.4526 74.0202 40.7073 68.7761 36.5287 66.3763C50.6406 86.3499 74.6784 130.698 84.9333 150.375C84.6002 144.871 83.1852 136.574 79.2053 128.137Z" fill="#D4D4D4"/>
<path d="M49.5715 77.1515L79.2053 128.137C79.3801 126.648 79.5724 123.354 78.943 122.092C72.2995 111.054 59.1173 88.5575 59.5369 86.8755C57.4389 83.3714 52.5087 76.5208 49.5715 77.1515Z" fill="#D4D4D4"/>
<path d="M53.243 174.917C27.438 139.595 7.52478 97.3004 0.793776 80.5681C0.435088 81.3196 0.211123 82.3053 0.0958875 83.459C7.05953 102.745 26.8086 147.725 50.096 173.36C51.3464 174.05 52.4146 174.569 53.243 174.917Z" fill="#D4D4D4"/>
<path d="M34.6236 66.3763C70.8134 123.143 80.7787 146.534 83.6634 151.527C84.5423 153.048 84.8913 154.262 84.9333 155.206C85.0316 154.07 85.0567 152.414 84.9333 150.375C74.6784 130.698 50.6406 86.3499 36.5287 66.3763C34.8516 65.4131 33.4269 64.9081 32.5256 65.1818C33.5688 65.4384 34.2757 65.9501 34.6236 66.3763Z" fill="#D4D4D4"/>
<path d="M3.6786 106.586C7.03544 119.412 21.6862 144.168 28.5919 154.944C36.0734 164.316 44.7493 170.408 50.096 173.36C26.8086 147.725 7.05953 102.745 0.0958875 83.459C-0.530321 89.7286 2.05429 100.963 3.6786 106.586Z" fill="#D4D4D4"/>
<path d="M92.3175 110.711C91.4834 111.17 90.6975 111.617 89.9573 112.05C93.8233 117.87 106.496 125.643 127.044 112.232C109.825 123.255 96.8214 115.993 92.3175 110.711Z" fill="#D4D4D4"/>
</svg>
