<svg width="879" height="421" viewBox="0 0 879 421" fill="none" xmlns="http://www.w3.org/2000/svg">
<ellipse cx="62.5964" cy="209.73" rx="62.5964" ry="151.651" fill="#D66A8A"/>
<ellipse cx="125.193" cy="210.376" rx="103.252" ry="210.376" fill="#E799AC"/>
<ellipse cx="165.203" cy="210.376" rx="103.252" ry="210.376" fill="#F2C1CD"/>
<ellipse cx="165.203" cy="209.73" rx="28.3943" ry="70.3403" fill="#E799AC"/>
<path d="M165 192.148L301.165 196.357C310.941 196.357 332.169 211.088 338.872 270.013H449.899C451.994 245.461 464.144 196.357 495.985 196.357H632.15C647.512 198.462 677.818 216.56 676.142 272.117H787.17C788.566 246.864 799.32 196.357 831.162 196.357H999.689L1003 234.237H858.395C846.524 232.834 823.201 238.446 824.877 272.117C826.553 305.789 800.437 312.803 787.17 312.102H676.142C662.875 312.803 636.341 305.789 636.341 272.117C636.341 238.446 613.996 232.834 602.824 234.237H514.84C505.763 233.536 487.607 239.709 487.607 270.013C487.607 300.317 462.468 310.699 449.899 312.102H338.872C326.303 311.401 301.165 302.001 301.165 270.013C301.165 230.028 280.218 230.028 269.743 230.028H165V192.148Z" fill="#BABABA"/>
<path d="M495.985 196.357C464.144 196.357 451.994 245.461 449.899 270.013H338.872C332.169 211.088 310.941 196.357 301.165 196.357L165 192.148V230.028H269.743C280.218 230.028 301.165 230.028 301.165 270.013C301.165 302.001 326.303 311.401 338.872 312.102H449.899C462.468 310.699 487.607 300.317 487.607 270.013C487.607 239.709 505.763 233.536 514.84 234.237H602.824C613.996 232.834 636.341 238.446 636.341 272.117C636.341 305.789 662.875 312.803 676.142 312.102H787.17C800.437 312.803 826.553 305.789 824.877 272.117C823.201 238.446 846.524 232.834 858.395 234.237H1003L999.689 196.357M495.985 196.357C527.827 196.357 600.029 196.357 632.15 196.357M495.985 196.357H632.15M632.15 196.357C647.512 198.462 677.818 216.56 676.142 272.117H787.17C788.566 246.864 799.32 196.357 831.162 196.357M831.162 196.357C863.003 196.357 971.758 196.357 999.689 196.357M831.162 196.357H999.689" stroke="#BABABA" stroke-width="12.0221" stroke-linejoin="round"/>
</svg>
