<svg width="261" height="326" viewBox="0 0 261 326" fill="none" xmlns="http://www.w3.org/2000/svg">
<path d="M261 194.759C261 266.832 202.573 325.259 130.5 325.259C58.4268 325.259 0 266.832 0 194.759C0 122.685 58.4268 64.2585 130.5 64.2585C202.573 64.2585 261 122.685 261 194.759Z" fill="#E799AC"/>
<path d="M237.347 126.101C236.067 110.428 238.333 87.6847 242.923 66.0232C250.39 30.7902 237.166 17.3564 202.622 8.44962L202.015 8.33344C180.973 4.3014 115.341 -8.27452 60.6068 8.44962C44.2941 13.2474 6.99101 26.952 18.3862 66.0232C22.8641 81.3761 31.8203 98.4553 26.4468 119.949C39.1886 122.805 65.2436 119.554 67.5283 83.7009C42.7037 62.6109 61.8157 45.087 70.3843 43.9532C83.7852 42.18 186.819 43.9532 186.819 43.9532C186.819 43.9532 216.696 53.1644 192.091 83.7009C191.24 97.8341 199.1 126.101 237.347 126.101Z" fill="#E799AC"/>
<path d="M258 215C256.99 241.559 236.391 300.052 162.073 321.555C142.215 326.994 92.1981 330.002 51 298.516C99.8049 302.676 209.532 291.796 258 215Z" fill="#D66A8A"/>
<ellipse cx="74.3035" cy="125.931" rx="43.8135" ry="20.4982" transform="rotate(-36.3575 74.3035 125.931)" fill="#F2C1CD"/>
</svg>
