<svg width="187" height="233" viewBox="0 0 187 233" fill="none" xmlns="http://www.w3.org/2000/svg">
<path d="M186.373 139.072C186.373 190.537 144.652 232.258 93.1866 232.258C41.7211 232.258 0 190.537 0 139.072C0 87.6063 41.7211 45.8853 93.1866 45.8853C144.652 45.8853 186.373 87.6063 186.373 139.072Z" fill="#E799AC"/>
<path d="M169.483 90.0451C168.569 78.8536 170.187 62.6133 173.465 47.1454C178.797 21.9865 169.354 12.3937 144.687 6.03365L144.254 5.95069C129.228 3.07152 82.362 -5.90862 43.2778 6.03365C31.6293 9.45965 4.9922 19.2457 13.1292 47.1454C16.3268 58.1085 22.7221 70.3043 18.885 85.6526C27.9837 87.692 46.5888 85.3703 48.2203 59.7686C30.4937 44.7088 44.1411 32.1954 50.2596 31.3858C59.8289 30.1196 133.402 31.3858 133.402 31.3858C133.402 31.3858 154.737 37.9633 137.167 59.7686C136.56 69.8608 142.172 90.0451 169.483 90.0451Z" fill="#E799AC"/>
<path d="M185 154C183.5 170.5 167.863 215.083 115.805 230.526C101.894 234.432 66.8585 236.593 38 213.98C72.187 216.967 151.049 209.154 185 154Z" fill="#D66A8A"/>
<ellipse cx="53.0585" cy="89.9241" rx="31.2861" ry="14.6372" transform="rotate(-36.3575 53.0585 89.9241)" fill="#F2C1CD"/>
</svg>
