<svg width="1366" height="197" viewBox="0 0 1366 197" fill="none" xmlns="http://www.w3.org/2000/svg">
<path d="M1262.26 187.644L1269.36 178.771L1171.75 101.575H667.757L547.082 184.095L1262.26 187.644Z" fill="#EA9BAE" stroke="#EA9BAE" stroke-width="0.843575" stroke-linecap="round"/>
<path d="M927.243 187.398L936.422 178.532L810.206 101.398H158.471L2.42188 183.852L927.243 187.398Z" fill="#EA9BAE" stroke="#EA9BAE" stroke-width="0.843575" stroke-linecap="round"/>
<path d="M1336.79 172.56C1330.87 180.545 1308.4 196.34 1265.81 195.63H545.307V184.982H1268.47L1336.79 172.56Z" fill="#D66A8A" stroke="#D66A8A" stroke-width="0.843575" stroke-linecap="round"/>
<path d="M1023.42 187.262C1015.77 195.34 987.028 195.887 931.962 195.169H0.421875V184.398H935.404L978.822 187.262L1023.42 187.262Z" fill="#D66A8A" stroke="#D66A8A" stroke-width="0.843575" stroke-linecap="round"/>
<path d="M1311.13 45.7813L1204.65 1.4156C1192.53 -1.24634 1164.37 -0.181563 1148.75 25.3731C1139.88 39.8659 1132.07 75.2401 1171.82 100.795L1234.86 164.818L1261.44 187.065L1307.51 169.898L1311.13 45.7813Z" fill="#D66A8A" stroke="#D66A8A" stroke-width="0.843575" stroke-linecap="round"/>
<circle cx="1291.54" cy="116.659" r="73.647" fill="#EA9BAE"/>
<circle cx="1291.54" cy="116.659" r="73.647" fill="#EA9BAE"/>
<circle cx="1291.54" cy="116.659" r="16.859" fill="#D66A8A"/>
</svg>
