<svg width="596" height="200" viewBox="0 0 596 200" fill="none" xmlns="http://www.w3.org/2000/svg">
<path d="M482.226 13.4026L100.042 71.9894C97.6559 88.4519 96.0677 129.773 105.721 165.823C161.484 171.376 319.379 166.375 501.436 104.624C500.658 65.8464 488.941 27.7401 482.226 13.4026Z" fill="#D8D8D8"/>
<path d="M4.81413 160.306C33.3083 162.558 61.6978 163.649 89.7761 163.757C89.6623 163.343 89.5499 162.928 89.4391 162.511C81.4718 132.526 81.3476 94.2265 82.7654 74.6379L9.46975 85.8738C-3.02504 113.584 -1.59769 139.592 4.81413 160.306Z" fill="#D8D8D8"/>
<path d="M569.656 -0.000104096L497.932 10.9949C504.965 25.9375 516.528 60.4643 517.136 97.7151C517.136 97.7656 517.137 97.8162 517.138 97.8668C549.293 87.7946 575.816 78.0269 595.278 69.7907C594.965 36.2469 579.958 10.8049 569.656 -0.000104096Z" fill="#D8D8D8"/>
<path d="M497.932 10.9949L482.226 13.4026C488.941 27.7401 500.658 65.8464 501.436 104.624C501.611 113.371 500.775 118.451 499.714 127.488L515.42 125.08C516.777 116.009 517.277 106.859 517.138 97.8668L517.136 97.7151C516.528 60.4643 504.965 25.9375 497.932 10.9949Z" fill="#94B754"/>
<path d="M82.7654 74.6379C81.3476 94.2265 81.4718 132.526 89.4391 162.511C89.5499 162.928 89.6623 163.343 89.7761 163.757C92.3911 173.259 95.8153 181.875 100.254 188.723L114.913 186.476C111.278 178.294 108.008 174.362 105.721 165.823C96.0677 129.773 97.6559 88.4519 100.042 71.9894L82.7654 74.6379Z" fill="#94B754"/>
<path d="M26.9584 199.959L100.254 188.723C95.8153 181.875 92.3911 173.259 89.7761 163.757C61.6978 163.649 33.3083 162.558 4.81413 160.306C10.3864 178.308 19.7233 192.311 26.9584 199.959Z" fill="#B7B7B7"/>
<path d="M114.913 186.476L499.714 127.488C500.775 118.451 501.611 113.371 501.436 104.624C319.379 166.375 161.484 171.376 105.721 165.823C108.008 174.362 111.278 178.294 114.913 186.476Z" fill="#B7B7B7"/>
<path d="M515.42 125.08L587.145 114.085C593.123 98.2812 595.405 83.3719 595.278 69.7907C575.816 78.0269 549.293 87.7946 517.138 97.8668C517.277 106.859 516.777 116.009 515.42 125.08Z" fill="#B7B7B7"/>
</svg>
