<svg width="634" height="122" viewBox="0 0 634 122" fill="none" xmlns="http://www.w3.org/2000/svg">
<path d="M523.375 0L114.858 0C109.731 16.7557 101.457 59.5152 105.767 98.5821C163.115 113.261 328.815 133.251 528.834 98.0219C534.229 57.5326 528.094 15.9962 523.375 0Z" fill="#D66A8A"/>
<path d="M1.26667 76.7372C30.6643 83.6279 60.1386 89.2939 89.4452 93.8873C89.3925 93.4384 89.3417 92.988 89.2927 92.5362C85.7724 60.0524 91.7742 20.1645 96.391 0L18.0451 0C0.55965 26.8515 -2.11341 54.152 1.26667 76.7372Z" fill="#D66A8A"/>
<path d="M616.83 0L540.164 0C545.117 16.6769 551.665 54.4625 546.336 93.3356C546.329 93.3884 546.321 93.4411 546.314 93.4939C581.508 88.1404 610.771 82.205 632.416 76.7372C637.459 41.7698 625.859 12.8913 616.83 0Z" fill="#D66A8A"/>
<path d="M540.164 0L523.375 0C528.094 15.9962 534.229 57.5326 528.834 98.0219C527.617 107.155 525.93 112.31 523.375 121.547H540.164C543.033 112.322 545.02 102.877 546.314 93.4939L546.336 93.3356C551.665 54.4625 545.117 16.6769 540.164 0Z" fill="#F2C1CD"/>
<path d="M96.391 0C91.7742 20.1645 85.7724 60.0524 89.2927 92.5362C89.3417 92.988 89.3925 93.4384 89.4452 93.8873C90.6549 104.196 92.8517 113.711 96.391 121.547H112.06C109.574 112.451 106.788 107.836 105.767 98.5821C101.457 59.5152 109.731 16.7557 114.858 0L96.391 0Z" fill="#F2C1CD"/>
<path d="M18.0451 121.547L96.391 121.547C92.8517 113.711 90.6549 104.196 89.4452 93.8873C60.1386 89.2939 30.6643 83.6279 1.26667 76.7372C4.20417 96.3651 11.7134 112.432 18.0451 121.547Z" fill="#C0365F"/>
<path d="M112.06 121.547L523.375 121.547C525.93 112.31 527.617 107.155 528.834 98.0219C328.815 133.251 163.115 113.261 105.767 98.5821C106.788 107.836 109.574 112.451 112.06 121.547Z" fill="#C0365F"/>
<path d="M540.164 121.547L616.83 121.547C625.604 106.05 630.374 90.8947 632.416 76.7372C610.771 82.205 581.508 88.1404 546.314 93.4939C545.02 102.877 543.033 112.322 540.164 121.547Z" fill="#C0365F"/>
</svg>
