<svg width="623" height="225" viewBox="0 0 623 225" fill="none" xmlns="http://www.w3.org/2000/svg">
<path d="M523.354 88.8029L124.514 17.0132C116.548 32.5603 100.914 73.0809 98.2195 112.188C151.615 136.675 309.858 185.417 511.363 185.985C523.785 147.187 525.134 105.335 523.354 88.8029Z" fill="#B1D471"/>
<path d="M0.054715 72.3802C27.5385 84.3105 55.3134 95.0522 83.1141 104.711C83.1419 104.261 83.1719 103.81 83.2039 103.358C85.5067 70.8521 98.4142 32.751 106.485 13.7679L29.9946 -3.82622e-05C8.17887 23.2859 0.745343 49.6156 0.054715 72.3802Z" fill="#B1D471"/>
<path d="M614.595 105.226L539.745 91.7531C541.634 108.994 541.35 147.237 529.279 184.46C529.263 184.511 529.246 184.561 529.23 184.612C564.536 185.541 594.155 184.857 616.253 183.294C627.355 149.854 621.132 119.467 614.595 105.226Z" fill="#B1D471"/>
<path d="M539.745 91.7531L523.354 88.8029C525.134 105.335 523.785 147.187 511.363 185.985C508.562 194.736 506.003 199.501 501.878 208.119L518.268 211.069C522.7 202.518 526.308 193.595 529.23 184.612L529.279 184.46C541.35 147.237 541.634 108.994 539.745 91.7531Z" fill="#EEEEEE"/>
<path d="M106.485 13.7679C98.4142 32.751 85.5067 70.8521 83.2039 103.358C83.1719 103.81 83.1419 104.261 83.1141 104.711C82.4737 115.043 82.9373 124.769 85.0081 133.084L100.306 135.838C99.4859 126.472 97.5812 121.451 98.2195 112.188C100.914 73.0809 116.548 32.5603 124.514 17.0132L106.485 13.7679Z" fill="#EEEEEE"/>
<path d="M8.51805 119.316L85.0081 133.084C82.9373 124.769 82.4737 115.043 83.1141 104.711C55.3134 95.0522 27.5385 84.3105 0.054715 72.3802C-0.545485 92.1641 3.94704 109.255 8.51805 119.316Z" fill="#94B754"/>
<path d="M100.306 135.838L501.878 208.119C506.003 199.501 508.562 194.736 511.363 185.985C309.858 185.417 151.615 136.675 98.2195 112.188C97.5812 121.451 99.4859 126.472 100.306 135.838Z" fill="#94B754"/>
<path d="M518.268 211.069L593.119 224.542C604.423 210.872 611.758 196.832 616.253 183.294C594.155 184.857 564.536 185.541 529.23 184.612C526.308 193.595 522.7 202.518 518.268 211.069Z" fill="#94B754"/>
</svg>
