<svg width="586" height="114" viewBox="0 0 586 114" fill="none" xmlns="http://www.w3.org/2000/svg">
<path d="M484.026 0L106.223 0C101.481 15.7153 93.8287 55.8197 97.8148 92.4608C150.851 106.228 304.093 124.977 489.074 91.9355C494.064 53.9602 488.39 15.003 484.026 0Z" fill="#EA9BAE"/>
<path d="M1.17143 71.9724C28.3589 78.4352 55.6172 83.7494 82.7203 88.0576C82.6716 87.6366 82.6246 87.2142 82.5793 86.7904C79.3237 56.3236 84.8743 18.9124 89.144 0L16.6884 0C0.517573 25.1842 -1.95451 50.7896 1.17143 71.9724Z" fill="#EA9BAE"/>
<path d="M570.455 0L499.552 0C504.133 15.6413 510.189 51.0807 505.26 87.5401C505.254 87.5896 505.247 87.6391 505.24 87.6886C537.788 82.6675 564.851 77.1007 584.868 71.9724C589.532 39.1762 578.805 12.0908 570.455 0Z" fill="#EA9BAE"/>
<path d="M499.552 0L484.026 0C488.39 15.003 494.064 53.9602 489.074 91.9355C487.948 100.501 486.388 105.337 484.026 114H499.552C502.206 105.348 504.043 96.4891 505.24 87.6886L505.26 87.5401C510.189 51.0807 504.133 15.6413 499.552 0Z" fill="#CECECE"/>
<path d="M89.144 0C84.8743 18.9124 79.3237 56.3236 82.5793 86.7904C82.6246 87.2142 82.6716 87.6366 82.7203 88.0576C83.8391 97.7261 85.8708 106.65 89.144 114H103.635C101.336 105.469 98.759 101.14 97.8148 92.4608C93.8287 55.8197 101.481 15.7153 106.223 0L89.144 0Z" fill="#CECECE"/>
<path d="M16.6884 114H89.144C85.8708 106.65 83.8391 97.7261 82.7203 88.0576C55.6172 83.7494 28.3589 78.4352 1.17143 71.9724C3.88808 90.3815 10.8328 105.451 16.6884 114Z" fill="#D66A8A"/>
<path d="M103.635 114H484.026C486.388 105.337 487.948 100.501 489.074 91.9355C304.093 124.977 150.851 106.228 97.8148 92.4608C98.759 101.14 101.336 105.469 103.635 114Z" fill="#D66A8A"/>
<path d="M499.552 114L570.455 114C578.568 99.4654 582.98 85.2508 584.868 71.9724C564.851 77.1007 537.788 82.6675 505.24 87.6886C504.043 96.4891 502.206 105.348 499.552 114Z" fill="#D66A8A"/>
<rect x="142" y="19" width="288" height="77" fill="#EA9BAE"/>
</svg>
