<svg width="554" height="295" viewBox="0 0 554 295" fill="none" xmlns="http://www.w3.org/2000/svg">
<path d="M471.416 160.95L123.559 30.8355C113.85 43.4863 93.17 77.3024 84.3831 111.979C128.535 142.758 263.256 212.575 444.808 246.25C462.313 213.452 470.333 176.089 471.416 160.95Z" fill="#F2C1CD"/>
<path d="M2.36559 60.0729C25.2009 75.3103 48.4919 89.5282 71.9821 102.778C72.0803 102.379 72.1807 101.979 72.2831 101.578C79.6434 72.765 97.473 40.673 107.834 24.9537L41.1215 0.000119357C17.6704 17.3213 6.68905 39.743 2.36559 60.0729Z" fill="#F2C1CD"/>
<path d="M550.994 190.716L485.712 166.297C484.612 182.092 478.139 216.388 461.206 247.83C461.183 247.872 461.16 247.915 461.137 247.958C492.812 254.603 519.623 258.864 539.797 261.097C555.241 232.894 554.572 204.581 550.994 190.716Z" fill="#F2C1CD"/>
<path d="M485.712 166.297L471.416 160.95C470.333 176.089 462.313 213.452 444.808 246.25C440.86 253.648 437.779 257.506 432.659 264.566L446.955 269.913C452.339 262.963 457.043 255.544 461.137 247.958L461.206 247.83C478.139 216.388 484.612 182.092 485.712 166.297Z" fill="#D66A8A"/>
<path d="M107.834 24.9537C97.473 40.673 79.6434 72.765 72.2831 101.578C72.1807 101.979 72.0803 102.379 71.9821 102.778C69.7251 111.951 68.5618 120.762 69.0768 128.57L82.4192 133.561C83.2026 125.014 82.3017 120.193 84.3831 111.979C93.17 77.3024 113.85 43.4863 123.559 30.8355L107.834 24.9537Z" fill="#D66A8A"/>
<path d="M2.36422 103.616L69.0768 128.57C68.5618 120.762 69.7251 111.951 71.9821 102.778C48.4919 89.5282 25.2009 75.3103 2.36559 60.0729C-1.39177 77.7409 -0.120624 93.829 2.36422 103.616Z" fill="#EA9BAE"/>
<path d="M82.4192 133.561L432.659 264.566C437.779 257.506 440.86 253.648 444.808 246.25C263.256 212.575 128.535 142.758 84.3831 111.979C82.3017 120.193 83.2026 125.014 82.4192 133.561Z" fill="#EA9BAE"/>
<path d="M446.955 269.913L512.237 294.332C524.649 283.916 533.544 272.515 539.797 261.097C519.623 258.864 492.812 254.603 461.137 247.958C457.043 255.544 452.339 262.963 446.955 269.913Z" fill="#EA9BAE"/>
</svg>
