<svg width="702" height="136" viewBox="0 0 702 136" fill="none" xmlns="http://www.w3.org/2000/svg">
<path d="M579.84 0H127.25C121.569 18.6444 112.402 66.2236 117.177 109.694C180.712 126.027 364.289 148.271 585.887 109.071C591.865 64.0175 585.067 17.7993 579.84 0Z" fill="#E799AC"/>
<path d="M1.40332 85.3868C33.9726 93.0542 66.6267 99.3589 99.095 104.47C99.0366 103.971 98.9804 103.469 98.9261 102.967C95.026 66.8214 101.675 22.4374 106.79 0H19.9919C0.620028 29.8782 -2.34141 60.2559 1.40332 85.3868Z" fill="#E799AC"/>
<path d="M683.377 0H598.44C603.927 18.5566 611.182 60.6014 605.278 103.856C605.27 103.915 605.261 103.974 605.253 104.032C644.244 98.0753 676.665 91.471 700.644 85.3868C706.232 46.478 693.38 14.3444 683.377 0Z" fill="#E799AC"/>
<path d="M598.44 0H579.84C585.067 17.7993 591.865 64.0175 585.887 109.071C584.539 119.233 582.67 124.97 579.84 135.248H598.44C601.618 124.983 603.82 114.473 605.253 104.032L605.278 103.856C611.182 60.6014 603.927 18.5566 598.44 0Z" fill="#D4D4D4"/>
<path d="M106.79 0C101.675 22.4374 95.026 66.8214 98.9261 102.967C98.9804 103.469 99.0366 103.971 99.095 104.47C100.435 115.941 102.869 126.528 106.79 135.248H124.15C121.395 125.126 118.309 119.991 117.177 109.694C112.402 66.2236 121.569 18.6444 127.25 0H106.79Z" fill="#D4D4D4"/>
<path d="M19.9919 135.248H106.79C102.869 126.528 100.435 115.941 99.095 104.47C66.6267 99.3589 33.9726 93.0542 1.40332 85.3868C4.65774 107.227 12.9771 125.105 19.9919 135.248Z" fill="#D66A8A"/>
<path d="M124.15 135.248H579.84C582.67 124.97 584.539 119.233 585.887 109.071C364.289 148.271 180.712 126.027 117.177 109.694C118.309 119.991 121.395 125.126 124.15 135.248Z" fill="#D66A8A"/>
<path d="M598.44 135.248H683.377C693.097 118.004 698.382 101.14 700.644 85.3868C676.665 91.471 644.244 98.0753 605.253 104.032C603.82 114.473 601.618 124.983 598.44 135.248Z" fill="#D66A8A"/>
</svg>
