<svg width="875" height="82" viewBox="0 0 875 82" fill="none" xmlns="http://www.w3.org/2000/svg">
<path d="M277.542 39.814C288.346 39.8141 297.154 48.7263 297.154 59.7827C297.154 70.8391 288.346 79.7514 277.542 79.7515C266.738 79.7515 257.93 70.8392 257.93 59.7827C257.93 48.7262 266.738 39.814 277.542 39.814Z" stroke="#95D471" stroke-width="3.56589"/>
<path d="M21.3955 39.1704C32.1994 39.1705 41.0078 48.0827 41.0078 59.1392C41.0078 70.1956 32.1994 79.1078 21.3955 79.1079C10.5916 79.1079 1.78321 70.1956 1.7832 59.1392C1.7832 48.0827 10.5915 39.1704 21.3955 39.1704Z" stroke="#95D471" stroke-width="3.56589"/>
<path d="M517.396 33.729C528.199 33.7291 537.008 42.6413 537.008 53.6978C537.008 64.7542 528.199 73.6664 517.396 73.6665C506.592 73.6665 497.783 64.7542 497.783 53.6978C497.783 42.6413 506.592 33.729 517.396 33.729Z" stroke="#95D471" stroke-width="3.56589"/>
<path d="M806.216 1.7832C817.02 1.78329 825.828 10.6955 825.828 21.752C825.828 32.8084 817.02 41.7206 806.216 41.7207C795.412 41.7207 786.604 32.8084 786.604 21.752C786.604 10.6955 795.412 1.7832 806.216 1.7832Z" stroke="#95D471" stroke-width="3.56589"/>
<path d="M853.286 1.7832C864.09 1.78329 872.898 10.6955 872.898 21.752C872.898 32.8084 864.09 41.7206 853.286 41.7207C842.482 41.7207 833.674 32.8084 833.674 21.752C833.674 10.6955 842.482 1.7832 853.286 1.7832Z" stroke="#95D471" stroke-width="3.56589"/>
</svg>
