<svg width="178" height="601" viewBox="0 0 178 601" fill="none" xmlns="http://www.w3.org/2000/svg">
<rect x="6" y="211.15" width="166.196" height="389.85" rx="15.304" fill="#EA9BAE"/>
<rect x="37.4141" y="200.678" width="103.369" height="20.6739" rx="5.10135" fill="#EA9BAE"/>
<rect x="44.6621" y="194.235" width="88.6023" height="12.6191" rx="5.10135" fill="#EA9BAE"/>
<rect x="23.4531" y="320.426" width="131.024" height="97.4625" rx="15.841" fill="#D66A8A"/>
<rect x="40.3672" y="324.722" width="24.9697" height="4.83285" rx="1.87944" fill="#BF3B62"/>
<rect x="43.5898" y="328.212" width="18.2574" height="3.49039" rx="1.7452" fill="#BF3B62"/>
<rect x="115.008" y="324.722" width="24.9697" height="4.83285" rx="1.87944" fill="#BF3B62"/>
<rect x="118.229" y="328.212" width="18.2574" height="3.49039" rx="1.7452" fill="#BF3B62"/>
<rect x="2.51562" y="134.776" width="175.388" height="36.2995" rx="18.1498" fill="#D9D9D9"/>
<rect y="19.7671" width="175.388" height="36.2995" rx="18.1498" fill="#D9D9D9"/>
<rect y="83.3809" width="175.388" height="30.1897" rx="15.0948" fill="#D9D9D9"/>
<rect x="17.6074" y="39.8938" width="145.557" height="124.712" fill="#D9D9D9"/>
<rect x="27.3125" width="126.15" height="56.0666" rx="28.0333" fill="#D9D9D9"/>
<rect x="21.5605" y="193.717" width="137.651" height="137.291" rx="28.213" transform="rotate(-90 21.5605 193.717)" fill="#D9D9D9"/>
</svg>
