<svg width="597" height="785" viewBox="0 0 597 785" fill="none" xmlns="http://www.w3.org/2000/svg">
<path fill-rule="evenodd" clip-rule="evenodd" d="M249.867 323.968C329.031 328.302 390.508 219.097 467.429 238.293C523.402 252.261 516.408 339.921 533.996 394.874C555.836 463.11 624.635 541.788 583.301 600.32C538.378 663.936 426.718 607.719 357.926 644.208C302.482 673.616 299.177 790.625 236.765 784.13C167.488 776.921 180.209 642.675 114.743 618.901C39.3678 591.528 -44.3864 684.334 -118.995 654.935C-192.889 625.817 -307.766 535.652 -262.872 470.103C-194.843 370.777 32.5053 480.236 77.2147 368.456C125.309 248.214 -160.252 126.686 -83.7261 22.2137C-16.6841 -69.3108 99.8151 146.686 183.929 222.772C214.302 250.247 208.971 321.73 249.867 323.968Z" fill="#D4D4D4"/>
</svg>
