<svg width="195" height="254" viewBox="0 0 195 254" fill="none" xmlns="http://www.w3.org/2000/svg">
<path fill-rule="evenodd" clip-rule="evenodd" d="M188.608 168.3C190.641 166.82 194.097 162.525 191.658 157.195C188.608 150.532 180.476 138.316 184.542 117.216C187.795 100.336 192.675 72.4251 194.708 60.5795C195.385 57.9883 195.318 52.1395 189.625 49.4743C183.933 46.809 174.377 43.1813 170.311 41.7006C167.6 40.2199 161.772 39.9238 160.146 50.5848L158.113 59.4688C157.435 63.5408 155.267 69.0193 152.014 58.3583L131.683 2.83218C131.344 1.35148 129.447 -1.1657 124.568 0.611133C119.688 2.38797 107.626 7.27426 102.204 9.49529C100.849 10.2356 98.5446 12.6048 100.171 16.1584C101.797 19.7121 109.659 44.2917 113.386 56.1372C113.725 57.9881 113.386 59.6908 109.32 51.6952C105.254 43.6995 95.4278 21.7111 91.0228 11.7163C90.3451 10.2356 88.1766 7.71846 84.9237 9.49529C81.6708 11.2721 69.337 18.3795 63.5767 21.711C62.2213 22.4514 60.1205 25.0426 62.5601 29.4847C64.9998 33.9268 75.0971 56.5074 79.8409 67.2425C81.5351 71.6846 83.297 78.1256 76.7913 68.353C70.2855 58.5804 60.5269 41.3303 56.4608 33.9268C55.7831 32.8163 53.8178 31.2615 51.3782 33.9268C48.9385 36.592 40.1964 42.4408 36.1303 45.032C35.1138 46.1425 33.6907 49.252 36.1303 52.8057C38.57 56.3593 50.0222 77.2372 55.4433 87.2319C57.4764 91.674 59.7127 98.3371 52.3938 89.4529C45.0748 80.5687 38.5013 70.2039 36.1294 66.132C35.4517 65.0214 33.4864 63.4667 31.0468 66.132C28.6071 68.7972 23.9311 72.4249 21.898 73.9056C21.2204 75.0161 20.2716 77.9035 21.898 80.5687C23.9311 83.9003 65.6079 158.305 81.8723 171.632C94.8838 182.293 103.558 202.726 106.269 211.61C106.947 213.831 110.335 216.497 118.467 209.389C126.599 202.282 168.616 179.035 188.608 168.3ZM145.913 149.421C136.155 148.533 111.352 166.079 100.17 174.963C93.0541 180.386 104.236 196.063 107.285 203.837C109.725 210.056 124.566 199.024 131.682 192.732C137.781 188.289 152.012 178.739 160.145 176.074C168.277 173.408 166.921 167.56 165.227 164.968C162.855 160.156 155.672 150.31 145.913 149.421ZM79.8409 149.421C87.1611 159.194 96.4436 153.493 100.17 149.421C110.335 142.758 144.897 122.769 156.079 117.216C167.26 111.664 171.326 103.89 160.146 82.7898C151.202 65.9099 121.856 80.9389 108.302 90.5634C102.542 94.2652 87.9714 104.112 75.7732 113.884C60.5253 126.1 70.6905 137.205 79.8409 149.421Z" fill="#D66A8A"/>
<path d="M100.17 174.963C111.352 166.079 136.155 148.533 145.913 149.421C155.672 150.31 162.855 160.156 165.227 164.968C166.921 167.56 168.277 173.408 160.145 176.074C152.012 178.739 137.781 188.289 131.682 192.732C124.566 199.024 109.725 210.056 107.285 203.837C104.236 196.063 93.0541 180.386 100.17 174.963Z" fill="#D66A8A"/>
<path d="M100.17 149.421C96.4436 153.493 87.1611 159.194 79.8409 149.421C70.6905 137.205 60.5253 126.1 75.7732 113.884C87.9714 104.112 102.542 94.2652 108.302 90.5634C121.856 80.9389 151.202 65.9099 160.146 82.7898C171.326 103.89 167.26 111.664 156.079 117.216C144.897 122.769 110.335 142.758 100.17 149.421Z" fill="#D66A8A"/>
<path fill-rule="evenodd" clip-rule="evenodd" d="M188.608 168.3C190.641 166.82 194.097 162.525 191.658 157.195C188.608 150.532 180.476 138.316 184.542 117.216C187.795 100.336 192.675 72.4251 194.708 60.5795C195.385 57.9883 195.318 52.1395 189.625 49.4743C183.933 46.809 174.377 43.1813 170.311 41.7006C167.6 40.2199 161.772 39.9238 160.146 50.5848L158.113 59.4688C157.435 63.5408 155.267 69.0193 152.014 58.3583L131.683 2.83218C131.344 1.35148 129.447 -1.1657 124.568 0.611133C119.688 2.38797 107.626 7.27426 102.204 9.49529C100.849 10.2356 98.5446 12.6048 100.171 16.1584C101.797 19.7121 109.659 44.2917 113.386 56.1372C113.725 57.9881 113.386 59.6908 109.32 51.6952C105.254 43.6995 95.4278 21.7111 91.0228 11.7163C90.3451 10.2356 88.1766 7.71846 84.9237 9.49529C81.6708 11.2721 69.337 18.3795 63.5767 21.711C62.2213 22.4514 60.1205 25.0426 62.5601 29.4847C64.9998 33.9268 75.0971 56.5074 79.8409 67.2425C81.5351 71.6846 83.297 78.1256 76.7913 68.353C70.2855 58.5804 60.5269 41.3303 56.4608 33.9268C55.7831 32.8163 53.8178 31.2615 51.3782 33.9268C48.9385 36.592 40.1964 42.4408 36.1303 45.032C35.1138 46.1425 33.6907 49.252 36.1303 52.8057C38.57 56.3593 50.0222 77.2372 55.4433 87.2319C57.4764 91.674 59.7127 98.3371 52.3938 89.4529C45.0748 80.5687 38.5013 70.2039 36.1294 66.132C35.4517 65.0214 33.4864 63.4667 31.0468 66.132C28.6071 68.7972 23.9311 72.4249 21.898 73.9056C21.2204 75.0161 20.2716 77.9035 21.898 80.5687C23.9311 83.9003 65.6079 158.305 81.8723 171.632C94.8838 182.293 103.558 202.726 106.269 211.61C106.947 213.831 110.335 216.497 118.467 209.389C126.599 202.282 168.616 179.035 188.608 168.3ZM145.913 149.421C136.155 148.533 111.352 166.079 100.17 174.963C93.0541 180.386 104.236 196.063 107.285 203.837C109.725 210.056 124.566 199.024 131.682 192.732C137.781 188.289 152.012 178.739 160.145 176.074C168.277 173.408 166.921 167.56 165.227 164.968C162.855 160.156 155.672 150.31 145.913 149.421ZM79.8409 149.421C87.1611 159.194 96.4436 153.493 100.17 149.421C110.335 142.758 144.897 122.769 156.079 117.216C167.26 111.664 171.326 103.89 160.146 82.7898C151.202 65.9099 121.856 80.9389 108.302 90.5634C102.542 94.2652 87.9714 104.112 75.7732 113.884C60.5253 126.1 70.6905 137.205 79.8409 149.421Z" stroke="#D66A8A"/>
<path d="M100.17 174.963C111.352 166.079 136.155 148.533 145.913 149.421C155.672 150.31 162.855 160.156 165.227 164.968C166.921 167.56 168.277 173.408 160.145 176.074C152.012 178.739 137.781 188.289 131.682 192.732C124.566 199.024 109.725 210.056 107.285 203.837C104.236 196.063 93.0541 180.386 100.17 174.963Z" stroke="#D66A8A"/>
<path d="M100.17 149.421C96.4436 153.493 87.1611 159.194 79.8409 149.421C70.6905 137.205 60.5253 126.1 75.7732 113.884C87.9714 104.112 102.542 94.2652 108.302 90.5634C121.856 80.9389 151.202 65.9099 160.146 82.7898C171.326 103.89 167.26 111.664 156.079 117.216C144.897 122.769 110.335 142.758 100.17 149.421Z" stroke="#D66A8A"/>
<path fill-rule="evenodd" clip-rule="evenodd" d="M167.608 208.3C169.641 206.82 173.097 202.525 170.658 197.195C167.608 190.532 159.476 178.316 163.542 157.216C166.795 140.336 171.675 112.425 173.708 100.579C174.385 97.9883 174.318 92.1395 168.625 89.4743C162.933 86.809 153.377 83.1813 149.311 81.7006C146.6 80.2199 140.772 79.9238 139.146 90.5848L137.113 99.4688C136.435 103.541 134.267 109.019 131.014 98.3583L110.683 42.8322C110.344 41.3515 108.447 38.8343 103.568 40.6111C98.6883 42.388 86.6256 47.2743 81.2041 49.4953C79.8487 50.2356 77.5446 52.6048 79.1711 56.1584C80.7975 59.7121 88.6589 84.2917 92.3863 96.1372C92.7252 97.9881 92.3863 99.6908 88.3202 91.6952C84.2541 83.6995 74.4278 61.7111 70.0228 51.7163C69.3451 50.2356 67.1766 47.7185 63.9237 49.4953C60.6708 51.2721 48.337 58.3795 42.5767 61.711C41.2213 62.4514 39.1205 65.0426 41.5601 69.4847C43.9998 73.9268 54.0971 96.5074 58.8409 107.242C60.5351 111.685 62.297 118.126 55.7913 108.353C49.2855 98.5804 39.5269 81.3303 35.4608 73.9268C34.7831 72.8163 32.8178 71.2615 30.3782 73.9268C27.9385 76.592 19.1964 82.4408 15.1303 85.032C14.1138 86.1425 12.6907 89.252 15.1303 92.8057C17.57 96.3593 29.0222 117.237 34.4433 127.232C36.4764 131.674 38.7127 138.337 31.3938 129.453C24.0748 120.569 17.5013 110.204 15.1294 106.132C14.4517 105.021 12.4864 103.467 10.0468 106.132C7.6071 108.797 2.93109 112.425 0.898041 113.906C0.220358 115.016 -0.728398 117.903 0.898041 120.569C2.93109 123.9 44.6079 198.305 60.8723 211.632C73.8838 222.293 82.5582 242.726 85.2689 251.61C85.9466 253.831 89.335 256.497 97.4672 249.389C105.599 242.282 147.616 219.035 167.608 208.3ZM124.913 189.421C115.155 188.533 90.3515 206.079 79.1697 214.963C72.0541 220.386 83.2358 236.063 86.2854 243.837C88.7251 250.056 103.566 239.024 110.682 232.732C116.781 228.289 131.012 218.739 139.145 216.074C147.277 213.408 145.921 207.56 144.227 204.968C141.855 200.156 134.672 190.31 124.913 189.421ZM58.8409 189.421C66.1611 199.194 75.4436 193.493 79.1697 189.421C89.335 182.758 123.897 162.769 135.079 157.216C146.26 151.664 150.326 143.89 139.146 122.79C130.202 105.91 100.856 120.939 87.3019 130.563C81.5416 134.265 66.9714 144.112 54.7732 153.884C39.5253 166.1 49.6905 177.205 58.8409 189.421Z" fill="#EA9BAE"/>
<path d="M79.1697 214.963C90.3515 206.079 115.155 188.533 124.913 189.421C134.672 190.31 141.855 200.156 144.227 204.968C145.921 207.56 147.277 213.408 139.145 216.074C131.012 218.739 116.781 228.289 110.682 232.732C103.566 239.024 88.7251 250.056 86.2854 243.837C83.2358 236.063 72.0541 220.386 79.1697 214.963Z" fill="#D66A8A"/>
<path d="M79.1697 189.421C75.4436 193.493 66.1611 199.194 58.8409 189.421C49.6905 177.205 39.5253 166.1 54.7732 153.884C66.9714 144.112 81.5416 134.265 87.3019 130.563C100.856 120.939 130.202 105.91 139.146 122.79C150.326 143.89 146.26 151.664 135.079 157.216C123.897 162.769 89.335 182.758 79.1697 189.421Z" fill="#D66A8A"/>
<path fill-rule="evenodd" clip-rule="evenodd" d="M167.608 208.3C169.641 206.82 173.097 202.525 170.658 197.195C167.608 190.532 159.476 178.316 163.542 157.216C166.795 140.336 171.675 112.425 173.708 100.579C174.385 97.9883 174.318 92.1395 168.625 89.4743C162.933 86.809 153.377 83.1813 149.311 81.7006C146.6 80.2199 140.772 79.9238 139.146 90.5848L137.113 99.4688C136.435 103.541 134.267 109.019 131.014 98.3583L110.683 42.8322C110.344 41.3515 108.447 38.8343 103.568 40.6111C98.6883 42.388 86.6256 47.2743 81.2041 49.4953C79.8487 50.2356 77.5446 52.6048 79.1711 56.1584C80.7975 59.7121 88.6589 84.2917 92.3863 96.1372C92.7252 97.9881 92.3863 99.6908 88.3202 91.6952C84.2541 83.6995 74.4278 61.7111 70.0228 51.7163C69.3451 50.2356 67.1766 47.7185 63.9237 49.4953C60.6708 51.2721 48.337 58.3795 42.5767 61.711C41.2213 62.4514 39.1205 65.0426 41.5601 69.4847C43.9998 73.9268 54.0971 96.5074 58.8409 107.242C60.5351 111.685 62.297 118.126 55.7913 108.353C49.2855 98.5804 39.5269 81.3303 35.4608 73.9268C34.7831 72.8163 32.8178 71.2615 30.3782 73.9268C27.9385 76.592 19.1964 82.4408 15.1303 85.032C14.1138 86.1425 12.6907 89.252 15.1303 92.8057C17.57 96.3593 29.0222 117.237 34.4433 127.232C36.4764 131.674 38.7127 138.337 31.3938 129.453C24.0748 120.569 17.5013 110.204 15.1294 106.132C14.4517 105.021 12.4864 103.467 10.0468 106.132C7.6071 108.797 2.93109 112.425 0.898041 113.906C0.220358 115.016 -0.728398 117.903 0.898041 120.569C2.93109 123.9 44.6079 198.305 60.8723 211.632C73.8838 222.293 82.5582 242.726 85.2689 251.61C85.9466 253.831 89.335 256.497 97.4672 249.389C105.599 242.282 147.616 219.035 167.608 208.3ZM124.913 189.421C115.155 188.533 90.3515 206.079 79.1697 214.963C72.0541 220.386 83.2358 236.063 86.2854 243.837C88.7251 250.056 103.566 239.024 110.682 232.732C116.781 228.289 131.012 218.739 139.145 216.074C147.277 213.408 145.921 207.56 144.227 204.968C141.855 200.156 134.672 190.31 124.913 189.421ZM58.8409 189.421C66.1611 199.194 75.4436 193.493 79.1697 189.421C89.335 182.758 123.897 162.769 135.079 157.216C146.26 151.664 150.326 143.89 139.146 122.79C130.202 105.91 100.856 120.939 87.3019 130.563C81.5416 134.265 66.9714 144.112 54.7732 153.884C39.5253 166.1 49.6905 177.205 58.8409 189.421Z" stroke="#D66A8A"/>
<path d="M79.1697 214.963C90.3515 206.079 115.155 188.533 124.913 189.421C134.672 190.31 141.855 200.156 144.227 204.968C145.921 207.56 147.277 213.408 139.145 216.074C131.012 218.739 116.781 228.289 110.682 232.732C103.566 239.024 88.7251 250.056 86.2854 243.837C83.2358 236.063 72.0541 220.386 79.1697 214.963Z" stroke="#D66A8A"/>
<path d="M79.1697 189.421C75.4436 193.493 66.1611 199.194 58.8409 189.421C49.6905 177.205 39.5253 166.1 54.7732 153.884C66.9714 144.112 81.5416 134.265 87.3019 130.563C100.856 120.939 130.202 105.91 139.146 122.79C150.326 143.89 146.26 151.664 135.079 157.216C123.897 162.769 89.335 182.758 79.1697 189.421Z" stroke="#D66A8A"/>
</svg>
