<svg width="988" height="402" viewBox="0 0 988 402" fill="none" xmlns="http://www.w3.org/2000/svg">
<rect x="9.93555" y="49.2446" width="689.408" height="17.9369" fill="#F2C4C1"/>
<rect x="691.326" y="292.553" width="18.3589" height="24.9006" fill="#F2C1CD"/>
<rect x="690.061" y="282.846" width="18.3589" height="24.9006" fill="#F2C4C1"/>
<rect x="675.498" y="280.103" width="18.3589" height="24.9006" fill="#F2C1CD"/>
<rect x="667.27" y="276.093" width="18.3589" height="24.9006" fill="#F2C1CD"/>
<rect x="671.699" y="279.047" width="18.3589" height="24.9006" fill="#F2C4C1"/>
<rect x="680.775" y="285.378" width="18.3589" height="24.9006" fill="#F2C4C1"/>
<rect x="697.742" y="291.92" width="18.3589" height="24.9006" transform="rotate(48.5238 697.742 291.92)" fill="#F2C4C1"/>
<rect x="704.707" y="299.517" width="18.3589" height="24.9006" transform="rotate(48.5238 704.707 299.517)" fill="#F2C4C1"/>
<rect x="711.67" y="307.113" width="18.3589" height="24.9006" transform="rotate(48.5238 711.67 307.113)" fill="#F2C4C1"/>
<rect x="714.57" y="316.712" width="16.1996" height="20.6045" transform="rotate(48.5238 714.57 316.712)" fill="#F2C4C1"/>
<rect x="720.9" y="323.573" width="16.1996" height="20.6045" transform="rotate(48.5238 720.9 323.573)" fill="#F2C4C1"/>
<rect x="727.021" y="331.17" width="16.1996" height="20.6045" transform="rotate(48.5238 727.021 331.17)" fill="#F2C4C1"/>
<rect x="738.207" y="349.318" width="16.1996" height="20.6045" transform="rotate(48.5238 738.207 349.318)" fill="#F2C1CD"/>
<rect x="736.939" y="341.721" width="16.1996" height="20.6045" transform="rotate(48.5238 736.939 341.721)" fill="#F2C4C1"/>
<rect x="730.098" y="360.291" width="20.7933" height="11.474" transform="rotate(48.5238 730.098 360.291)" fill="#F2C4C1"/>
<rect x="723.4" y="356.914" width="20.7933" height="11.474" fill="#F2C4C1"/>
<path d="M732.1 382.659H747.504V388.568H732.1V382.659Z" fill="#F2C4C1"/>
<rect width="1.15336" height="6.15956" transform="matrix(-0.866025 0.5 0.5 0.866025 747.822 382.87)" fill="#F2C4C1"/>
<rect width="1.15336" height="6.15956" transform="matrix(-0.866025 0.5 0.5 0.866025 746.979 382.87)" fill="#F2C4C1"/>
<rect width="1.15336" height="6.15956" transform="matrix(-0.866025 0.5 0.5 0.866025 745.924 382.87)" fill="#F2C4C1"/>
<path d="M744.656 382.87L743.657 383.447L746.737 388.781L747.736 388.204L744.656 382.87Z" fill="#F2C4C1"/>
<path d="M748.091 350.267V383.081H736.062V350.267L707.68 309.962V285.167H718.336V309.962L748.091 350.267Z" fill="#F2C4C1"/>
<path d="M707.68 285.167H718.336H738.806L746.191 260.794H723.753H-75L-74.6889 285.167H707.68Z" fill="#F2C4C1"/>
<path d="M746.191 260.794L726.777 213.842L736.062 96.3025L713.518 40.9378L692.697 49.3502L708.524 92.7152H-68.8804V99.8899H708.524V112.551V214.791L723.753 260.794H746.191Z" fill="#F2C4C1"/>
<path d="M-68.8804 112.551H708.524V99.8899H-68.8804V112.551Z" fill="#F2C4C1"/>
<path fill-rule="evenodd" clip-rule="evenodd" d="M723.296 362.507L736.062 383.292L731.42 388.568L720.025 366.516L723.296 362.507Z" fill="#F2C4C1"/>
<path d="M680.353 310.068L681.091 304.581L677.293 305.109L675.077 310.068H680.353Z" fill="#F2C4C1"/>
<path d="M677.293 305.109L667.164 294.241L664.315 297.617L675.077 310.068L677.293 305.109Z" fill="#F2C4C1"/>
<path d="M748.091 350.267V383.081H736.062V350.267M748.091 350.267L718.336 309.962V285.167M748.091 350.267H736.062M718.336 285.167H707.68M718.336 285.167H738.806L746.191 260.794M707.68 285.167V309.962L736.062 350.267M707.68 285.167H-74.6889M746.191 260.794L726.777 213.842L736.062 96.3025L713.518 40.9378M746.191 260.794H723.753M713.378 40.5928L713.518 40.9378M-75 285.167H-74.6889M-74.6835 285.589L-74.6889 285.167M723.296 362.507L736.062 383.292L731.42 388.568M723.296 362.507L720.025 366.516L731.42 388.568M723.296 362.507V357.759L680.353 310.068M731.42 388.568H751.467L748.302 383.292M680.353 310.068L681.091 304.581L677.293 305.109M680.353 310.068H675.077M677.293 305.109L667.164 294.241M677.293 305.109L675.077 310.068M667.164 294.241L664.315 297.617L675.077 310.068M667.164 294.241V285.273M723.823 261.005L723.753 260.794M708.524 112.551V214.791L723.753 260.794M708.524 112.551H-68.8804M708.524 112.551V99.8899H-68.8804M-68.8804 112.551V92.7152M-68.8804 112.551V99.8899M-68.8804 92.7152H708.524L692.697 49.3502M-68.8804 92.7152V99.8899M692.697 49.3502H10.4638L9.72526 67.076M692.697 49.3502L713.518 40.9378M713.589 40.9093L713.518 40.9378M699.028 67.076H9.30322M723.753 260.794H-75L-74.6889 285.167" stroke="#F2C4C1" stroke-width="1.80866"/>
<ellipse cx="891.612" cy="253.332" rx="71.1049" ry="65.2068" transform="rotate(45 891.612 253.332)" fill="#CECECE"/>
<ellipse cx="839.48" cy="302.22" rx="73.3986" ry="67.1728" transform="rotate(45 839.48 302.22)" fill="#F5F5F5"/>
<ellipse cx="831.37" cy="310.562" rx="48.6593" ry="44.3996" transform="rotate(45 831.37 310.562)" fill="#CECECE"/>
<ellipse cx="824.883" cy="310.33" rx="48.1678" ry="43.9081" transform="rotate(45 824.883 310.33)" fill="#F5F5F5"/>
<circle cx="824.883" cy="310.33" r="11.1409" transform="rotate(45 824.883 310.33)" fill="#777777"/>
<path d="M896.13 265.728L902.849 262.021C901.498 256.576 895.875 245.222 884.197 243.369L876.899 246.497C880.065 248.273 888.345 254.606 896.13 265.728Z" fill="#8C8C8C"/>
<ellipse cx="661.228" cy="180.479" rx="63.3722" ry="58.1155" fill="#CECECE"/>
<ellipse cx="520.466" cy="182.231" rx="63.3722" ry="58.1155" fill="#CECECE"/>
<ellipse cx="375.614" cy="182.231" rx="63.3722" ry="58.1155" fill="#CECECE"/>
<ellipse cx="226.675" cy="182.231" rx="63.3722" ry="58.1155" fill="#CECECE"/>
<ellipse cx="77.4445" cy="182.231" rx="63.3722" ry="58.1155" fill="#CECECE"/>
<ellipse cx="671.646" cy="42.938" rx="46.8219" ry="42.938" fill="#CECECE"/>
<ellipse cx="563.591" cy="44.1055" rx="46.8219" ry="42.938" fill="#CECECE"/>
<ellipse cx="452.619" cy="42.938" rx="46.8219" ry="42.938" fill="#CECECE"/>
<ellipse cx="341.349" cy="42.938" rx="46.8219" ry="42.938" fill="#CECECE"/>
<ellipse cx="230.377" cy="42.938" rx="46.8219" ry="42.938" fill="#CECECE"/>
<ellipse cx="116.48" cy="44.1055" rx="46.8219" ry="42.938" fill="#CECECE"/>
<ellipse cx="5.50742" cy="42.938" rx="46.8219" ry="42.938" fill="#CECECE"/>
<ellipse cx="659.182" cy="244.143" rx="65.4165" ry="59.8677" fill="#F5F5F5"/>
<ellipse cx="518.42" cy="245.896" rx="65.4165" ry="59.8677" fill="#F5F5F5"/>
<ellipse cx="373.569" cy="245.896" rx="65.4165" ry="59.8677" fill="#F5F5F5"/>
<ellipse cx="224.631" cy="245.896" rx="65.4165" ry="59.8677" fill="#F5F5F5"/>
<ellipse cx="75.4008" cy="245.896" rx="65.4165" ry="59.8677" fill="#F5F5F5"/>
<ellipse cx="670.135" cy="89.9753" rx="48.3323" ry="44.2326" fill="#F5F5F5"/>
<ellipse cx="562.08" cy="91.1433" rx="48.3323" ry="44.2326" fill="#F5F5F5"/>
<ellipse cx="451.108" cy="89.9753" rx="48.3323" ry="44.2326" fill="#F5F5F5"/>
<ellipse cx="228.865" cy="89.9753" rx="48.3323" ry="44.2326" fill="#F5F5F5"/>
<ellipse cx="114.971" cy="91.1433" rx="48.3323" ry="44.2326" fill="#F5F5F5"/>
<ellipse cx="3.99632" cy="89.9753" rx="48.3323" ry="44.2326" fill="#F5F5F5"/>
<ellipse cx="339.838" cy="89.9753" rx="48.3323" ry="44.2326" fill="#F5F5F5"/>
<ellipse cx="655.094" cy="258.453" rx="42.9296" ry="39.1331" fill="#F5F5F5"/>
<ellipse cx="514.332" cy="260.205" rx="42.9296" ry="39.1331" fill="#F5F5F5"/>
<ellipse cx="369.48" cy="260.205" rx="42.9296" ry="39.1331" fill="#F5F5F5"/>
<ellipse cx="220.543" cy="260.205" rx="42.9296" ry="39.1331" fill="#F5F5F5"/>
<ellipse cx="71.3124" cy="260.205" rx="42.9296" ry="39.1331" fill="#F5F5F5"/>
<ellipse cx="667.113" cy="100.548" rx="31.718" ry="28.913" fill="#F5F5F5"/>
<ellipse cx="225.845" cy="100.548" rx="31.718" ry="28.913" fill="#F5F5F5"/>
<ellipse cx="111.95" cy="101.716" rx="31.718" ry="28.913" fill="#F5F5F5"/>
<ellipse cx="0.975853" cy="100.548" rx="31.718" ry="28.913" fill="#F5F5F5"/>
<ellipse cx="559.06" cy="101.716" rx="31.718" ry="28.913" fill="#F5F5F5"/>
<ellipse cx="448.085" cy="100.548" rx="31.718" ry="28.913" fill="#F5F5F5"/>
<ellipse cx="336.82" cy="100.548" rx="31.718" ry="28.913" fill="#F5F5F5"/>
<circle cx="655.093" cy="258.453" r="9.92929" fill="#777777"/>
<circle cx="514.332" cy="260.205" r="9.92929" fill="#777777"/>
<circle cx="369.48" cy="260.205" r="9.92929" fill="#777777"/>
<circle cx="220.543" cy="260.205" r="9.92929" fill="#777777"/>
<circle cx="71.3101" cy="260.205" r="9.92929" fill="#777777"/>
<circle cx="225.844" cy="100.548" r="7.33615" fill="#777777"/>
<circle cx="111.951" cy="101.716" r="7.33615" fill="#777777"/>
<circle cx="0.974817" cy="100.548" r="7.33615" fill="#777777"/>
<circle cx="667.113" cy="100.548" r="7.33615" fill="#777777"/>
<circle cx="559.059" cy="101.716" r="7.33615" fill="#777777"/>
<circle cx="448.084" cy="100.548" r="7.33615" fill="#777777"/>
<circle cx="336.821" cy="100.548" r="7.33615" fill="#777777"/>
<path d="M671.888 185.444L673.786 178.873C669.503 176.293 658.804 172.682 650.277 178.873L647.648 185.444C650.764 184.568 659.972 183.341 671.888 185.444Z" fill="#8C8C8C"/>
<path d="M531.124 187.196L533.022 180.625C528.739 178.045 518.041 174.434 509.513 180.625L506.885 187.196C510 186.32 519.209 185.093 531.124 187.196Z" fill="#8C8C8C"/>
<path d="M386.272 187.196L388.171 180.625C383.887 178.045 373.189 174.434 364.662 180.625L362.033 187.196C365.148 186.32 374.357 185.093 386.272 187.196Z" fill="#8C8C8C"/>
<path d="M237.335 187.196L239.233 180.625C234.95 178.045 224.252 174.434 215.724 180.625L213.096 187.196C216.211 186.32 225.42 185.093 237.335 187.196Z" fill="#8C8C8C"/>
<path d="M238.253 46.6056L239.655 41.7508C236.49 39.8448 228.586 37.1765 222.286 41.7508L220.344 46.6056C222.645 45.9583 229.449 45.0521 238.253 46.6056Z" fill="#8C8C8C"/>
<path d="M124.356 47.7741L125.759 42.9193C122.594 41.0133 114.69 38.345 108.389 42.9193L106.447 47.7741C108.749 47.1268 115.553 46.2205 124.356 47.7741Z" fill="#8C8C8C"/>
<path d="M13.3815 46.6056L14.784 41.7508C11.6194 39.8448 3.71503 37.1765 -2.58542 41.7508L-4.52734 46.6056C-2.22581 45.9583 4.57811 45.0521 13.3815 46.6056Z" fill="#8C8C8C"/>
<path d="M88.1024 187.196L90.0007 180.625C85.7174 178.045 75.0191 174.434 66.4916 180.625L63.8633 187.196C66.9784 186.32 76.1873 185.093 88.1024 187.196Z" fill="#8C8C8C"/>
<path d="M679.52 46.6056L680.923 41.7508C677.758 39.8448 669.854 37.1765 663.553 41.7508L661.611 46.6056C663.913 45.9583 670.717 45.0521 679.52 46.6056Z" fill="#8C8C8C"/>
<path d="M571.465 47.7741L572.868 42.9193C569.703 41.0133 561.799 38.345 555.499 42.9193L553.557 47.7741C555.858 47.1268 562.662 46.2205 571.465 47.7741Z" fill="#8C8C8C"/>
<path d="M460.491 46.6056L461.893 41.7508C458.729 39.8448 450.824 37.1765 444.524 41.7508L442.582 46.6056C444.884 45.9583 451.687 45.0521 460.491 46.6056Z" fill="#8C8C8C"/>
<path d="M349.225 46.6056L350.628 41.7508C347.463 39.8448 339.559 37.1765 333.258 41.7508L331.316 46.6056C333.618 45.9583 340.422 45.0521 349.225 46.6056Z" fill="#8C8C8C"/>
</svg>
