<svg width="534" height="602" viewBox="0 0 534 602" fill="none" xmlns="http://www.w3.org/2000/svg">
<path fill-rule="evenodd" clip-rule="evenodd" d="M403.555 216.886C470.137 206.216 501.548 104.36 568.945 106.447C617.988 107.966 627.979 182.09 652.506 224.596C682.962 277.376 754.332 330.369 730.529 386.473C704.658 447.45 601.711 420.854 551.11 463.586C510.327 498.026 528.676 595.879 475.628 601.733C416.746 608.231 403.115 494.353 344.414 486.395C276.827 477.232 223.943 569.473 156.629 558.487C89.958 547.607 -21.7838 493.374 3.71439 430.796C42.3516 335.971 251.058 385.964 268.067 284.992C286.364 176.376 27.0958 126.846 71.8685 26.2125C111.092 -61.9497 246.869 96.5824 330.502 144.66C360.702 162.02 369.159 222.398 403.555 216.886Z" fill="#D4D4D4"/>
</svg>
