<svg width="270" height="623" viewBox="0 0 270 623" fill="none" xmlns="http://www.w3.org/2000/svg">
<path fill-rule="evenodd" clip-rule="evenodd" d="M50.0833 620.651C3.77076 636.104 -32.7285 567.397 -80.7227 558.461C-131.252 549.054 -189.436 595.299 -232.946 567.958C-275.146 541.44 -282.049 479.48 -285.509 429.776C-288.619 385.104 -248.299 345.978 -251.507 301.313C-254.629 257.84 -310.704 225.732 -303.25 182.786C-296.169 141.991 -243.907 126.841 -215.924 96.3047C-187.793 65.6071 -177.632 10.1773 -136.941 1.30443C-93.1783 -8.23848 -56.4009 37.2065 -14.2467 52.3272C15.5126 63.0018 44.6919 73.804 76.0686 77.711C121.091 83.3173 177.295 49.6234 210.67 80.3342C242.223 109.368 206.617 165.786 216.989 207.382C226.66 246.168 277.524 274.973 268.936 314.018C260.002 354.642 201.706 362.49 175.727 394.989C153.828 422.382 146.695 457.634 129.636 488.272C104.317 533.748 99.4734 604.172 50.0833 620.651Z" fill="#94B754"/>
</svg>
