<svg width="1440" height="1009" viewBox="0 0 1440 1009" fill="none" xmlns="http://www.w3.org/2000/svg">
<path fill-rule="evenodd" clip-rule="evenodd" d="M249.867 420.426C329.031 424.76 390.508 315.555 467.429 334.751C523.402 348.719 516.408 436.379 533.996 491.332C555.836 559.568 624.635 638.246 583.301 696.778C538.378 760.394 426.718 704.177 357.926 740.666C302.482 770.074 299.177 887.083 236.765 880.588C167.488 873.379 180.209 739.133 114.743 715.359C39.3678 687.986 -44.3864 780.792 -118.995 751.393C-192.889 722.275 -307.766 632.11 -262.872 566.561C-194.843 467.235 32.5052 576.694 77.2147 464.914C125.309 344.672 -160.252 223.144 -83.7261 118.672C-16.6841 27.1472 99.8151 243.144 183.929 319.23C214.302 346.705 208.971 418.188 249.867 420.426Z" fill="#D4D4D4"/>
<path d="M1489.97 0C1524.78 16.043 1535.12 77.1475 1556.51 114.213C1586.96 166.993 1658.33 219.986 1634.53 276.09C1608.66 337.066 1505.71 310.47 1455.11 353.202C1414.33 387.642 1432.68 485.496 1379.63 491.35C1320.75 497.847 1307.12 383.97 1248.41 376.012C1180.83 366.849 1127.94 459.09 1060.63 448.104C993.958 437.224 882.217 382.99 907.715 320.412C946.352 225.588 1155.06 275.581 1172.07 174.608C1176.49 148.382 1164.72 125.601 1144.96 104.713H1293.24C1297.5 106.625 1302.22 107.359 1307.56 106.503C1310.32 106.059 1313.03 105.457 1315.68 104.713H1489.97V0Z" fill="#D4D4D4"/>
</svg>
