<svg width="400" height="701" viewBox="0 0 400 701" fill="none" xmlns="http://www.w3.org/2000/svg">
<path fill-rule="evenodd" clip-rule="evenodd" d="M95.7027 534.876C49.4836 500.772 -11.4466 441.345 1.85787 389.365C19.4642 320.578 142.101 339.048 163.062 271.704C179.982 217.346 86.0118 161.014 91.1112 102.622C95.4928 52.4509 140.047 11.0152 186.657 1.52971C235.753 -8.46157 286.859 33.0215 337.02 52.5785C373.219 66.6918 405.346 93.6365 442.527 101.289C490.441 111.151 538.3 82.1311 584.077 103.427C629.698 124.651 662.333 171.858 689.802 216.326C718.999 263.589 759.616 319.013 748.11 368.968C735.53 423.586 653.467 423.88 630.572 473.473C609.396 519.343 669.892 608.14 626.86 631.612C578.031 658.246 512.871 553.376 458.277 567.453C403.721 581.519 415.938 698.918 358.362 700.839C308.081 702.517 298.479 603.366 252.509 574.319C204.522 543.999 141.712 568.826 95.7027 534.876Z" fill="#94B754"/>
</svg>
