<svg width="944" height="671" viewBox="0 0 944 671" fill="none" xmlns="http://www.w3.org/2000/svg">
<rect width="943.957" height="634.519" fill="#EA9BAE"/>
<rect x="15.9336" y="14.3396" width="172.073" height="297.144" fill="#EEEEEE"/>
<rect x="15.9336" y="325.823" width="172.073" height="296.746" fill="#EEEEEE"/>
<rect x="200.752" y="14.3396" width="172.471" height="297.144" fill="#EEEEEE"/>
<rect x="200.752" y="325.823" width="172.471" height="296.746" fill="#EEEEEE"/>
<rect x="385.971" y="14.3396" width="172.073" height="297.144" fill="#EEEEEE"/>
<rect x="570.59" y="13.6018" width="172.073" height="297.144" fill="#EEEEEE"/>
<rect x="755.574" y="14.282" width="172.073" height="297.144" fill="#EEEEEE"/>
<rect x="385.971" y="325.823" width="172.073" height="296.746" fill="#EEEEEE"/>
<rect x="570.59" y="325.085" width="172.073" height="296.746" fill="#EEEEEE"/>
<rect x="755.574" y="325.766" width="172.073" height="296.746" fill="#EEEEEE"/>
<rect x="31.4648" y="230.626" width="34.6536" height="64.9257" rx="7.40768" fill="#EA9BAE"/>
<rect x="214.293" y="230.626" width="34.6536" height="64.9257" rx="7.40768" fill="#EA9BAE"/>
<rect x="214.293" y="546.491" width="34.6536" height="64.9257" rx="7.40768" fill="#EA9BAE"/>
<rect x="31.4648" y="546.491" width="34.6536" height="64.9257" rx="7.40768" fill="#EA9BAE"/>
<rect x="399.514" y="546.491" width="34.6536" height="64.9257" rx="7.40768" fill="#EA9BAE"/>
<rect x="584.135" y="545.754" width="34.6536" height="64.9257" rx="7.40768" fill="#EA9BAE"/>
<rect x="769.117" y="546.433" width="34.6536" height="64.9257" rx="7.40768" fill="#EA9BAE"/>
<rect x="399.514" y="230.626" width="34.6536" height="64.9257" rx="7.40768" fill="#EA9BAE"/>
<rect x="584.135" y="229.888" width="34.6536" height="64.9257" rx="7.40768" fill="#EA9BAE"/>
<rect x="769.117" y="230.568" width="34.6536" height="64.9257" rx="7.40768" fill="#EA9BAE"/>
<rect x="51.7793" y="235.007" width="9.95792" height="56.561" rx="2.72915" fill="#D66A8A"/>
<rect x="234.609" y="235.007" width="9.95792" height="56.561" rx="2.72915" fill="#D66A8A"/>
<rect x="234.609" y="550.872" width="9.95792" height="56.561" rx="2.72915" fill="#D66A8A"/>
<rect x="51.7793" y="550.872" width="9.95792" height="56.561" rx="2.72915" fill="#D66A8A"/>
<path d="M419.826 553.601C419.826 552.094 421.048 550.872 422.555 550.872H427.055C428.562 550.872 429.784 552.094 429.784 553.601V604.704C429.784 606.211 428.562 607.433 427.055 607.433H422.555C421.048 607.433 419.826 606.211 419.826 604.704V553.601Z" fill="#D66A8A"/>
<path d="M604.449 552.864C604.449 551.357 605.671 550.135 607.178 550.135H611.678C613.185 550.135 614.407 551.357 614.407 552.864V603.967C614.407 605.474 613.185 606.696 611.678 606.696H607.178C605.671 606.696 604.449 605.474 604.449 603.967V552.864Z" fill="#D66A8A"/>
<path d="M789.432 553.544C789.432 552.036 790.654 550.814 792.161 550.814H796.66C798.168 550.814 799.39 552.036 799.39 553.544V604.646C799.39 606.154 798.168 607.375 796.66 607.375H792.161C790.654 607.375 789.432 606.154 789.432 604.646V553.544Z" fill="#D66A8A"/>
<rect x="419.826" y="235.007" width="9.95792" height="56.561" rx="2.72915" fill="#D66A8A"/>
<rect x="604.449" y="234.269" width="9.95792" height="56.561" rx="2.72915" fill="#D66A8A"/>
<rect x="789.432" y="234.949" width="9.95792" height="56.561" rx="2.72915" fill="#D66A8A"/>
<rect y="631" width="944" height="40" fill="#EA9BAE"/>
</svg>
