<svg width="377" height="638" viewBox="0 0 377 638" fill="none" xmlns="http://www.w3.org/2000/svg">
<path fill-rule="evenodd" clip-rule="evenodd" d="M376.99 257.381V585.984C377.69 605.931 342.966 643.936 198.471 636.377C132.314 639.876 0 634.697 0 585.984V257.381H70.3574C74.5578 228.685 88.2093 163.105 109.211 130.349L109.417 130.029C135.558 89.2581 160.692 60.0507 192.99 57.377C204.624 54.0374 208.744 54.928 215.273 55.81C231.827 57.0455 273.029 65.6787 289.831 113.552C310.833 173.393 313.5 222.357 317.133 257.381H376.99ZM269.878 257.381C271.979 206.638 261.078 107.703 246.776 86.2557C240.475 76.8071 224.528 63.7044 208 62.3569C189.045 60.8116 169.369 80.0496 165.43 86.2557C145.44 117.753 146.5 113.552 127.73 168.857C116 213.857 113.5 226.857 109.417 257.381H269.878ZM274.079 360.266H100.811V535.591H274.079V360.266Z" fill="#B1D471"/>
<path d="M100.811 360.266H274.079V535.591H100.811V360.266Z" fill="#EA9BAE"/>
<rect x="108.49" y="377.877" width="107" height="152" fill="#EA9BAE"/>
<rect x="42" y="40" width="299" height="218" fill="#F5F5F5"/>
<path d="M190.308 20.5194C254.246 19.8373 263.383 178.556 267 258H312C302.083 198.736 281.081 4.53117 190.308 0.0544288C117.69 -3.52697 76.5119 170.526 65 258H108.5C112.817 179.124 126.371 21.2016 190.308 20.5194Z" fill="#B1D471"/>
</svg>
