<svg width="153" height="248" viewBox="0 0 153 248" fill="none" xmlns="http://www.w3.org/2000/svg">
<path fill-rule="evenodd" clip-rule="evenodd" d="M33.4324 230.398C76.8041 246.659 112.044 233.108 118.369 230.398C120.467 229.499 121.913 228.568 122.886 227.723C124.26 226.53 124.694 225.506 124.694 224.978L136.785 100.312C89.3523 122.715 35.2906 109.646 14.1888 100.312C18.9085 147.688 25.3002 213.183 25.3002 218.654C25.3002 221.57 26.39 223.99 27.8368 225.881C29.6168 228.208 31.937 229.733 33.4324 230.398ZM32.5288 121.089C75.9005 129.039 108.429 124.402 119.272 121.089L112.947 190.649C85.4784 198.599 51.5039 193.962 37.9502 190.649L32.5288 121.089Z" fill="#EA9BAE"/>
<path d="M14.1888 100.312C35.2906 109.646 89.3523 122.715 136.785 100.312C114.805 91.88 59.5144 80.0759 14.1888 100.312Z" fill="#D66A8A"/>
<path d="M118.369 230.398C112.044 233.108 76.8041 246.659 33.4324 230.398C31.937 229.733 29.6168 228.208 27.8368 225.881L28.9145 237.625C69.3947 256.415 108.429 245.454 122.886 237.625V227.723C121.913 228.568 120.467 229.499 118.369 230.398Z" fill="#EA9BAE"/>
<path d="M119.272 121.089C108.429 124.402 75.9005 129.039 32.5288 121.089L37.9502 190.649C51.5039 193.962 85.4784 198.599 112.947 190.649L119.272 121.089Z" fill="#B1D471"/>
<path d="M139.151 75.9204C93.6106 91.8198 35.2395 82.5452 11.7465 75.9204C12.4646 83.052 13.2969 91.3582 14.1888 100.312C59.5144 80.0759 114.805 91.88 136.785 100.312L139.151 75.9204Z" fill="#CCCCCC"/>
<path d="M11.7465 75.9204C35.2395 82.5452 93.6106 91.8198 139.151 75.9204C144.572 74.7159 154.873 70.8615 152.705 65.0799C151.273 61.2632 148.188 60.6484 145.476 61.1046C144.08 61.3394 142.783 61.858 141.862 62.3697C119.875 71.1024 62.1661 82.9667 7.22862 60.563C4.81908 60.563 0 61.8277 0 66.8866C0 71.9455 7.831 75.017 11.7465 75.9204Z" fill="#B6B6B6"/>
<path d="M7.22862 60.563C62.1661 82.9667 119.875 71.1024 141.862 62.3697C142.783 61.858 144.08 61.3394 145.476 61.1046C144.572 40.1464 129.212 -1.40866 74.9969 0.0367467C20.7823 1.48215 7.22862 40.9898 7.22862 60.563Z" fill="#BDBDBD"/>
<path d="M49.2275 155L46.5475 144.8H49.3475L51.0075 152.18L52.6275 144.8H55.2475L52.5675 155H49.2275ZM56.6616 143.44V140.74H59.3616V143.44H56.6616ZM56.6616 155V144.8H59.3616V155H56.6616ZM66.9858 147H65.0258V151.68C65.0258 152.48 65.3058 152.8 66.0658 152.8C66.3258 152.8 66.6458 152.76 66.9858 152.66V154.94C66.5258 155.12 66.0658 155.2 65.5058 155.2C63.3658 155.2 62.3258 154.16 62.3258 152.04V147H60.8658V144.8H62.4258L62.6058 142.2H65.0258V144.8H66.9858V147ZM76.1323 151.86C76.1323 153.46 76.2723 154.42 76.4523 155H73.9523C73.8523 154.96 73.7523 154.26 73.7123 153.24C73.3523 154.44 72.4523 155.2 71.0123 155.2C69.2923 155.2 68.1923 154.18 68.1923 152.5C68.1923 150.96 68.8523 149.8 71.1723 149.24C73.1723 148.76 73.4323 148.52 73.4323 147.96C73.4323 147.16 73.1523 146.8 72.3323 146.8C71.4323 146.8 71.1523 147.28 71.1523 148.14H68.6123C68.6123 145.9 69.9123 144.6 72.3723 144.6C75.1723 144.6 76.1323 146.02 76.1323 148.54V151.86ZM71.9523 153C72.7523 153 73.4323 152.5 73.4323 151.16V150.38C73.1723 150.56 72.7523 150.74 72.0923 150.92C71.1523 151.18 70.8923 151.6 70.8923 152.06C70.8923 152.64 71.1923 153 71.9523 153ZM88.365 144.6C90.165 144.6 91.125 145.76 91.125 148V155H88.425V148.44C88.425 147.54 88.245 146.92 87.285 146.92C86.405 146.92 86.005 147.48 86.005 148.72V155H83.305V148.44C83.305 147.46 83.085 146.92 82.185 146.92C81.305 146.92 80.885 147.48 80.885 148.72V155H78.185V144.8H80.525L80.585 146.58C80.945 145.32 81.885 144.6 83.265 144.6C84.545 144.6 85.405 145.2 85.785 146.38C86.185 145.24 87.085 144.6 88.365 144.6ZM93.1459 143.44V140.74H95.8459V143.44H93.1459ZM93.1459 155V144.8H95.8459V155H93.1459ZM103.07 144.6C104.89 144.6 105.85 145.76 105.85 148V155H103.15V148.44C103.15 147.36 102.85 146.92 101.99 146.92C101.09 146.92 100.67 147.48 100.67 148.72V155H97.9702V144.8H100.31L100.37 146.6C100.73 145.32 101.69 144.6 103.07 144.6ZM76.6106 179.2C74.0906 179.2 72.6706 177.84 72.6706 175.44V172.36C72.6706 169.94 74.0906 168.6 76.6106 168.6C79.1906 168.6 80.4506 170.08 80.4506 172.36V172.68H77.8506V172.16C77.8506 171.38 77.4506 170.92 76.6106 170.92C75.8106 170.92 75.3706 171.38 75.3706 172.16V175.64C75.3706 176.42 75.8106 176.88 76.6106 176.88C77.4506 176.88 77.8506 176.42 77.8506 175.64V174.9H80.4506V175.44C80.4506 177.72 79.1906 179.2 76.6106 179.2Z" fill="white"/>
<rect x="41" y="131" width="67" height="56" fill="#B1D471"/>
</svg>
