<svg width="1187" height="613" viewBox="0 0 1187 613" fill="none" xmlns="http://www.w3.org/2000/svg">
<path fill-rule="evenodd" clip-rule="evenodd" d="M39.1482 282.789C89.9351 301.829 131.199 285.962 138.606 282.789C141.063 281.736 142.756 280.646 143.896 279.656C145.505 278.26 146.012 277.061 146.012 276.442L160.171 130.462C104.629 156.696 41.3241 141.393 16.6146 130.462C22.1413 185.937 29.6257 262.631 29.6257 269.037C29.6257 272.452 30.9019 275.285 32.596 277.5C34.6803 280.224 37.3972 282.011 39.1482 282.789ZM38.0902 154.792C88.8771 164.101 126.967 158.67 139.664 154.792L132.258 236.244C100.093 245.553 60.3094 240.123 44.4385 236.244L38.0902 154.792Z" fill="#F2C1CD"/>
<path d="M16.6146 130.462C41.3241 141.393 104.629 156.696 160.171 130.462C134.433 120.589 69.6894 106.766 16.6146 130.462Z" fill="#EA9BAE"/>
<path d="M138.606 282.789C131.199 285.962 89.9351 301.829 39.1482 282.789C37.3972 282.011 34.6803 280.224 32.596 277.5L33.8579 291.251C81.259 313.254 126.967 300.419 143.896 291.251V279.656C142.756 280.646 141.063 281.736 138.606 282.789Z" fill="#F2C1CD"/>
<path d="M139.664 154.792C126.967 158.67 88.8771 164.101 38.0902 154.792L44.4385 236.244C60.3094 240.123 100.093 245.553 132.258 236.244L139.664 154.792Z" fill="#EEEEEE"/>
<path d="M162.941 101.9C109.615 120.518 41.2644 109.658 13.7548 101.9C14.5957 110.251 15.5702 119.978 16.6146 130.462C69.6894 106.766 134.433 120.589 160.171 130.462L162.941 101.9Z" fill="#CCCCCC"/>
<path d="M13.7548 101.9C41.2644 109.658 109.615 120.518 162.941 101.9C169.29 100.49 181.352 95.9765 178.812 89.2065C177.136 84.7373 173.523 84.0174 170.348 84.5515C168.713 84.8265 167.194 85.4338 166.115 86.033C140.369 96.2586 72.7945 110.151 8.46448 83.9174C5.64299 83.9174 0 85.3983 0 91.3221C0 97.2459 9.16986 100.843 13.7548 101.9Z" fill="#B6B6B6"/>
<path d="M8.46448 83.9174C72.7945 110.151 140.369 96.2586 166.115 86.033C167.194 85.4338 168.713 84.8265 170.348 84.5515C169.29 60.0101 151.303 11.3505 87.819 13.043C24.3354 14.7356 8.46448 60.9978 8.46448 83.9174Z" fill="#BDBDBD"/>
<path fill-rule="evenodd" clip-rule="evenodd" d="M446.789 559.073C498.415 575.705 538.888 557.915 546.137 554.397C548.542 553.23 550.182 552.062 551.274 551.02C552.815 549.549 553.266 548.327 553.237 547.709L560.516 401.225C506.269 430.041 442.315 417.731 417.119 407.974C425.247 463.129 436.329 539.386 436.63 545.784C436.791 549.195 438.199 551.966 439.995 554.098C442.205 556.721 445.003 558.378 446.789 559.073ZM439.714 431.267C490.883 438.178 528.676 430.963 541.176 426.492L537.607 508.203C505.915 519.013 465.921 515.46 449.885 512.331L439.714 431.267Z" fill="#F2C1CD"/>
<path d="M417.119 407.974C442.315 417.731 506.269 430.041 560.516 401.225C534.343 392.573 469.021 381.81 417.119 407.974Z" fill="#EA9BAE"/>
<path d="M546.137 554.397C538.888 557.915 498.415 575.705 446.789 559.073C445.003 558.378 442.205 556.721 439.995 554.098L441.902 567.775C490.286 587.525 535.34 572.555 551.819 562.602L551.274 551.02C550.182 552.062 548.542 553.23 546.137 554.397Z" fill="#F2C1CD"/>
<path d="M541.176 426.492C528.676 430.963 490.883 438.178 439.714 431.267L449.885 512.331C465.921 515.46 505.915 519.013 537.607 508.203L541.176 426.492Z" fill="#EEEEEE"/>
<path d="M561.941 372.565C509.549 393.669 440.763 386.034 412.919 379.579C414.152 387.881 415.583 397.551 417.119 407.974C469.021 381.81 534.343 392.573 560.516 401.225L561.941 372.565Z" fill="#CCCCCC"/>
<path d="M412.919 379.579C440.763 386.034 509.549 393.669 561.941 372.565C568.216 370.857 580.052 365.782 577.197 359.139C575.313 354.753 571.67 354.204 568.523 354.887C566.903 355.238 565.415 355.916 564.365 356.566C539.128 367.99 472.282 385.045 406.789 361.864C403.971 361.997 398.404 363.742 398.682 369.659C398.961 375.576 408.29 378.738 412.919 379.579Z" fill="#B6B6B6"/>
<path d="M406.789 361.864C472.282 385.045 539.128 367.99 564.365 356.566C565.415 355.916 566.903 355.238 568.523 354.887C566.313 330.422 546.058 282.662 482.724 287.338C419.39 292.013 405.712 338.97 406.789 361.864Z" fill="#BDBDBD"/>
<path fill-rule="evenodd" clip-rule="evenodd" d="M618.685 286.405C671.599 298.319 710.305 276.956 717.208 272.8C719.498 271.421 721.026 270.11 722.02 268.973C723.423 267.37 723.761 266.113 723.676 265.499L717.733 118.955C666.302 152.54 601.499 146.04 575.526 138.592C588.59 192.79 606.495 267.739 607.371 274.085C607.838 277.468 609.49 280.1 611.471 282.062C613.908 284.475 616.844 285.873 618.685 286.405ZM600.128 159.756C651.711 162.03 688.7 151.44 700.747 145.861L704.552 227.561C673.963 241.183 633.811 241.245 617.559 239.574L600.128 159.756Z" fill="#F2C1CD"/>
<path d="M575.526 138.592C601.499 146.04 666.302 152.54 717.733 118.955C690.887 112.695 624.861 107.859 575.526 138.592Z" fill="#EA9BAE"/>
<path d="M717.208 272.8C710.305 276.956 671.599 298.319 618.685 286.405C616.844 285.873 613.908 284.475 611.471 282.062L614.602 295.511C664.568 310.823 708.09 291.857 723.606 280.459L722.02 268.973C721.026 270.11 719.498 271.421 717.208 272.8Z" fill="#F2C1CD"/>
<path d="M700.747 145.861C688.7 151.44 651.711 162.03 600.128 159.756L617.559 239.574C633.811 241.245 673.963 241.183 704.552 227.561L700.747 145.861Z" fill="#EEEEEE"/>
<path d="M716.57 90.283C666.292 116.02 597.098 114.612 568.786 110.69C570.762 118.848 573.057 128.349 575.526 138.592C624.861 107.859 690.887 112.695 717.733 118.955L716.57 90.283Z" fill="#CCCCCC"/>
<path d="M568.786 110.69C597.098 114.612 666.292 116.02 716.57 90.283C722.666 88.0174 733.997 81.8965 730.556 75.5374C728.284 71.3395 724.606 71.1206 721.534 72.084C719.952 72.58 718.531 73.3894 717.544 74.1305C693.439 87.7819 628.4 110.788 561.086 93.6002C558.291 93.9861 552.904 96.2251 553.714 102.093C554.524 107.961 564.1 110.27 568.786 110.69Z" fill="#B6B6B6"/>
<path d="M561.086 93.6002C628.4 110.788 693.439 87.7819 717.544 74.1305C718.531 73.3894 719.952 72.58 721.534 72.084C717.129 47.9181 692.655 2.17636 629.999 12.537C567.344 22.8977 557.951 70.8961 561.086 93.6002Z" fill="#BDBDBD"/>
<path fill-rule="evenodd" clip-rule="evenodd" d="M1045.05 585.259C1098.5 594.437 1136.06 571.113 1142.74 566.607C1144.96 565.112 1146.42 563.724 1147.35 562.538C1148.67 560.864 1148.94 559.592 1148.83 558.983L1135.36 412.938C1085.72 449.123 1020.67 445.963 994.348 439.86C1010.18 493.315 1031.91 567.244 1033.12 573.537C1033.76 576.891 1035.54 579.435 1037.62 581.292C1040.18 583.577 1043.18 584.823 1045.05 585.259ZM1020.01 459.731C1071.64 459.35 1108.03 446.873 1119.78 440.682L1127.78 522.079C1097.93 537.255 1057.83 539.381 1041.52 538.548L1020.01 459.731Z" fill="#F2C1CD"/>
<path d="M994.348 439.86C1020.67 445.963 1085.72 449.123 1135.36 412.938C1108.22 408.067 1042.04 406.632 994.348 439.86Z" fill="#EA9BAE"/>
<path d="M1142.74 566.607C1136.06 571.113 1098.5 594.437 1045.05 585.259C1043.18 584.823 1040.18 583.577 1037.62 581.292L1041.44 594.563C1092.13 607.286 1134.62 586.107 1149.52 573.927L1147.35 562.538C1146.42 563.724 1144.96 565.112 1142.74 566.607Z" fill="#F2C1CD"/>
<path d="M1119.78 440.682C1108.03 446.873 1071.64 459.35 1020.01 459.731L1041.52 538.548C1057.83 539.381 1097.93 537.255 1127.78 522.079L1119.78 440.682Z" fill="#EEEEEE"/>
<path d="M1132.72 384.364C1083.83 412.652 1014.66 414.803 986.183 412.342C988.575 420.387 991.356 429.758 994.348 439.86C1042.04 406.632 1108.22 408.067 1135.36 412.938L1132.72 384.364Z" fill="#CCCCCC"/>
<path d="M986.183 412.342C1014.66 414.803 1083.83 412.652 1132.72 384.364C1138.69 381.788 1149.69 375.093 1145.93 368.919C1143.45 364.844 1139.76 364.814 1136.74 365.934C1135.19 366.511 1133.81 367.392 1132.86 368.183C1109.49 383.056 1045.72 409.374 977.614 395.67C974.842 396.199 969.577 398.712 970.688 404.531C971.799 410.349 981.481 412.163 986.183 412.342Z" fill="#B6B6B6"/>
<path d="M977.614 395.67C1045.72 409.374 1109.49 383.056 1132.86 368.183C1133.81 367.392 1135.19 366.511 1136.74 365.934C1131.1 342.027 1104.31 297.603 1042.27 311.171C980.229 324.739 973.316 373.157 977.614 395.67Z" fill="#BDBDBD"/>
</svg>
