<svg width="1149" height="606" viewBox="0 0 1149 606" fill="none" xmlns="http://www.w3.org/2000/svg">
<path fill-rule="evenodd" clip-rule="evenodd" d="M41.0733 298.394C89.6117 322.599 132.299 311.097 139.995 308.708C142.548 307.916 144.345 307.008 145.581 306.142C147.326 304.919 147.955 303.779 148.019 303.164L177.241 159.439C119.277 179.772 57.9013 157.986 34.4587 144.551C34.2022 200.301 33.6926 277.357 33.0283 283.729C32.6741 287.125 33.6496 290.076 35.1049 292.454C36.8954 295.38 39.4124 297.438 41.0733 298.394ZM53.2952 170.977C102.843 185.503 141.291 184.052 154.321 181.511L138.508 261.757C105.551 267.679 66.5451 258.153 51.1621 252.649L53.2952 170.977Z" fill="#B1D471"/>
<path d="M34.4587 144.551C57.9013 157.986 119.277 179.772 177.241 159.439C152.666 146.95 89.7046 126.488 34.4587 144.551Z" fill="#94B754"/>
<path d="M139.995 308.708C132.299 311.097 89.6117 322.599 41.0733 298.394C39.4124 297.438 36.8954 295.38 35.1049 292.454L34.9339 306.262C79.7975 333.062 126.59 325.037 144.379 317.674L145.581 306.142C144.345 307.008 142.548 307.916 139.995 308.708Z" fill="#B1D471"/>
<path d="M154.321 181.511C141.291 184.052 102.843 185.503 53.2952 170.977L51.1621 252.649C66.5451 258.153 105.551 267.679 138.508 261.757L154.321 181.511Z" fill="#EEEEEE"/>
<path d="M182.958 131.319C127.989 144.306 61.133 126.416 34.5762 115.847C34.5465 124.241 34.5071 134.015 34.4587 144.551C89.7046 126.488 152.666 146.95 177.241 159.439L182.958 131.319Z" fill="#CCCCCC"/>
<path d="M34.5762 115.847C61.133 126.416 127.989 144.306 182.958 131.319C189.419 130.575 201.884 127.337 200.06 120.34C198.856 115.721 195.338 114.63 192.124 114.832C190.47 114.936 188.896 115.383 187.761 115.867C161.093 123.367 92.4419 130.177 31.1794 97.4128C28.3731 97.1202 22.607 98.0079 21.9926 103.9C21.3783 109.792 30.1257 114.32 34.5762 115.847Z" fill="#B6B6B6"/>
<path d="M31.1794 97.4128C92.4419 130.177 161.093 123.367 187.761 115.867C188.896 115.383 190.47 114.936 192.124 114.832C193.617 90.3132 180.773 40.0506 117.456 35.1503C54.1394 30.25 33.5563 74.6168 31.1794 97.4128Z" fill="#BDBDBD"/>
<path fill-rule="evenodd" clip-rule="evenodd" d="M298.876 575.97C352.7 582.665 389.137 557.627 395.601 552.817C397.746 551.221 399.139 549.767 400.017 548.539C401.256 546.806 401.471 545.522 401.327 544.92L381.113 399.655C333.204 438.098 268.076 437.952 241.501 433.074C259.79 485.739 284.923 558.583 286.414 564.813C287.209 568.134 289.109 570.593 291.272 572.352C293.934 574.516 296.992 575.621 298.876 575.97ZM268.05 451.736C319.609 448.966 355.388 434.818 366.833 428.09L378.592 509.029C349.478 525.57 309.523 529.55 293.186 529.473L268.05 451.736Z" fill="#B1D471"/>
<path d="M241.501 433.074C268.076 437.952 333.204 438.098 381.113 399.655C353.784 396.044 287.601 397.674 241.501 433.074Z" fill="#94B754"/>
<path d="M395.601 552.817C389.137 557.627 352.7 582.665 298.876 575.97C296.992 575.621 293.934 574.516 291.272 572.352L295.701 585.432C346.922 595.795 388.387 572.672 402.716 559.815L400.017 548.539C399.139 549.767 397.746 551.221 395.601 552.817Z" fill="#B1D471"/>
<path d="M366.833 428.09C355.388 434.818 319.609 448.966 268.05 451.736L293.186 529.473C309.523 529.55 349.478 525.57 378.592 509.029L366.833 428.09Z" fill="#EEEEEE"/>
<path d="M377.158 371.233C329.631 401.753 260.63 407.103 232.07 405.963C234.832 413.889 238.044 423.121 241.501 433.074C287.601 397.674 353.784 396.044 381.113 399.655L377.158 371.233Z" fill="#CCCCCC"/>
<path d="M232.07 405.963C260.63 407.103 329.631 401.753 377.158 371.233C383.004 368.384 393.684 361.186 389.638 355.193C386.967 351.237 383.286 351.378 380.322 352.637C378.797 353.285 377.461 354.229 376.551 355.063C353.893 371.001 291.409 400.243 222.739 389.706C219.995 390.362 214.852 393.116 216.231 398.877C217.61 404.638 227.365 406.002 232.07 405.963Z" fill="#B6B6B6"/>
<path d="M222.739 389.706C291.409 400.243 353.893 371.001 376.551 355.063C377.461 354.229 378.797 353.285 380.322 352.637C373.58 329.016 344.76 285.88 283.414 302.305C222.069 318.73 217.404 367.416 222.739 389.706Z" fill="#BDBDBD"/>
<path fill-rule="evenodd" clip-rule="evenodd" d="M982.036 272.369C1030.63 296.465 1073.29 284.867 1080.98 282.461C1083.53 281.663 1085.33 280.751 1086.56 279.882C1088.3 278.656 1088.93 277.515 1088.99 276.899L1117.89 133.109C1059.97 153.571 998.549 131.923 975.076 118.541C974.945 174.292 974.608 251.349 973.958 257.721C973.611 261.119 974.593 264.067 976.054 266.442C977.851 269.364 980.373 271.417 982.036 272.369ZM993.972 144.925C1043.55 159.34 1082 157.803 1095.02 155.232L1079.39 235.513C1046.44 241.51 1007.42 232.071 992.022 226.601L993.972 144.925Z" fill="#B1D471"/>
<path d="M975.076 118.541C998.549 131.923 1059.97 153.571 1117.89 133.109C1093.29 120.675 1030.28 100.354 975.076 118.541Z" fill="#94B754"/>
<path d="M1080.98 282.461C1073.29 284.867 1030.63 296.465 982.036 272.369C980.373 271.417 977.851 269.364 976.054 266.442L975.914 280.251C1020.84 306.95 1067.61 298.82 1085.38 291.417L1086.56 279.882C1085.33 280.751 1083.53 281.663 1080.98 282.461Z" fill="#B1D471"/>
<path d="M1095.02 155.232C1082 157.803 1043.55 159.34 993.972 144.925L992.022 226.601C1007.42 232.071 1046.44 241.51 1079.39 235.513L1095.02 155.232Z" fill="#EEEEEE"/>
<path d="M1123.55 104.976C1068.61 118.087 1001.71 100.346 975.129 89.8373C975.118 98.2303 975.101 108.005 975.076 118.541C1030.28 100.354 1093.29 120.675 1117.89 133.109L1123.55 104.976Z" fill="#CCCCCC"/>
<path d="M975.129 89.8373C1001.71 100.346 1068.61 118.087 1123.55 104.976C1130 104.217 1142.46 100.951 1140.62 93.9584C1139.41 89.3422 1135.89 88.2594 1132.67 88.4686C1131.02 88.5762 1129.45 89.0263 1128.31 89.5129C1101.66 97.0731 1033.03 104.037 971.691 71.4102C968.884 71.1239 963.12 72.0246 962.519 77.9178C961.918 83.8111 970.675 88.3196 975.129 89.8373Z" fill="#B6B6B6"/>
<path d="M971.691 71.4102C1033.03 104.037 1101.66 97.0731 1128.31 89.5129C1129.45 89.0263 1131.02 88.5762 1132.67 88.4686C1134.11 63.9465 1121.16 13.7128 1057.83 8.95444C994.5 4.19608 974.017 48.609 971.691 71.4102Z" fill="#BDBDBD"/>
</svg>
