<svg width="964" height="746" viewBox="0 0 964 746" fill="none" xmlns="http://www.w3.org/2000/svg">
<path fill-rule="evenodd" clip-rule="evenodd" d="M41.8837 703.593C89.0776 730.325 132.312 721.09 140.123 719.111C142.715 718.455 144.557 717.643 145.837 716.843C147.644 715.714 148.333 714.609 148.429 713.998L185.192 572.015C126.237 589.261 66.0952 564.268 43.3939 549.615C40.1969 605.274 35.623 682.196 34.6235 688.523C34.0907 691.896 34.9091 694.895 36.2369 697.346C37.8707 700.362 40.2755 702.551 41.8837 703.593ZM60.8102 576.998C109.523 594.117 147.993 594.697 161.14 592.847L141.115 672.146C107.891 676.322 69.4429 664.751 54.3716 658.444L60.8102 576.998Z" fill="#94B754"/>
<path d="M43.3939 549.615C66.0952 564.268 126.237 589.261 185.192 572.015C161.31 558.247 99.5159 534.492 43.3939 549.615Z" fill="#749B2E"/>
<path d="M140.123 719.111C132.312 721.09 89.0776 730.325 41.8837 703.593C40.2755 702.551 37.8707 700.362 36.2369 697.346L35.3377 711.126C78.7251 740.256 125.876 734.71 144.028 728.296L145.837 716.843C144.557 717.643 142.715 718.455 140.123 719.111Z" fill="#94B754"/>
<path d="M161.14 592.847C147.993 594.697 109.523 594.117 60.8102 576.998L54.3716 658.444C69.4429 664.751 107.891 676.322 141.115 672.146L161.14 592.847Z" fill="#EEEEEE"/>
<path d="M192.385 544.236C136.807 554.305 70.9878 532.912 45.0256 520.958C44.5532 529.337 43.9981 539.097 43.3939 549.615C99.5159 534.492 161.31 558.247 185.192 572.015L192.385 544.236Z" fill="#CCCCCC"/>
<path d="M45.0256 520.958C70.9878 532.912 136.807 554.305 192.385 544.236C198.876 543.833 211.494 541.257 210.042 534.173C209.084 529.497 205.627 528.223 202.408 528.255C200.75 528.271 199.155 528.634 197.996 529.058C170.97 535.141 102.055 538.32 42.606 502.369C39.8191 501.929 34.0141 502.512 33.0898 508.363C32.1655 514.214 40.6619 519.197 45.0256 520.958Z" fill="#B6B6B6"/>
<path d="M42.606 502.369C102.055 538.32 170.97 535.141 197.996 529.058C199.155 528.634 200.75 528.271 202.408 528.255C205.192 503.849 195.017 452.979 132.047 444.745C69.0771 436.511 46.1822 479.731 42.606 502.369Z" fill="#BDBDBD"/>
<path fill-rule="evenodd" clip-rule="evenodd" d="M232.555 294.877C286.37 301.64 322.839 276.648 329.309 271.846C331.456 270.253 332.85 268.801 333.73 267.574C334.972 265.843 335.188 264.559 335.044 263.957L315.015 118.666C267.057 157.048 201.93 156.82 175.361 151.908C193.583 204.596 218.623 277.472 220.106 283.704C220.897 287.026 222.795 289.487 224.956 291.249C227.614 293.416 230.671 294.525 232.555 294.877ZM201.886 170.604C253.448 167.899 289.246 153.796 300.699 147.083L312.355 228.037C283.22 244.541 243.261 248.47 226.923 248.372L201.886 170.604Z" fill="#94B754"/>
<path d="M175.361 151.908C201.93 156.82 267.057 157.048 315.015 118.666C287.691 115.021 221.506 116.566 175.361 151.908Z" fill="#749B2E"/>
<path d="M329.309 271.846C322.839 276.648 286.37 301.64 232.555 294.877C230.671 294.525 227.614 293.416 224.956 291.249L229.368 304.334C280.575 314.763 322.069 291.693 336.415 278.854L333.73 267.574C332.85 268.801 331.456 270.253 329.309 271.846Z" fill="#94B754"/>
<path d="M300.699 147.083C289.246 153.796 253.448 167.899 201.886 170.604L226.923 248.372C243.261 248.47 283.22 244.541 312.355 228.037L300.699 147.083Z" fill="#EEEEEE"/>
<path d="M311.096 90.2393C263.531 120.699 194.523 125.961 165.965 124.785C168.717 132.714 171.917 141.95 175.361 151.908C221.506 116.566 287.691 115.021 315.015 118.666L311.096 90.2393Z" fill="#CCCCCC"/>
<path d="M165.965 124.785C194.523 125.961 263.531 120.699 311.096 90.2393C316.946 87.3971 327.635 80.2134 323.597 74.2153C320.931 70.2557 317.25 70.392 314.284 71.6469C312.758 72.2929 311.421 73.2354 310.51 74.0681C287.832 89.9776 225.31 119.14 156.654 108.516C153.909 109.169 148.763 111.916 150.134 117.679C151.506 123.442 161.259 124.818 165.965 124.785Z" fill="#B6B6B6"/>
<path d="M156.654 108.516C225.31 119.14 287.832 89.9776 310.51 74.0681C311.421 73.2354 312.758 72.2929 314.284 71.6469C307.572 48.0175 278.806 4.84553 217.44 21.1923C156.074 37.5391 151.347 86.219 156.654 108.516Z" fill="#BDBDBD"/>
<path fill-rule="evenodd" clip-rule="evenodd" d="M617.418 689.129C668.205 708.17 709.469 692.303 716.875 689.129C719.333 688.076 721.026 686.987 722.166 685.997C723.774 684.6 724.282 683.402 724.282 682.782L738.441 536.802C682.898 563.037 619.594 547.733 594.884 536.802C600.411 592.278 607.895 668.972 607.895 675.378C607.895 678.793 609.171 681.626 610.866 683.84C612.95 686.565 615.667 688.351 617.418 689.129ZM616.36 561.132C667.147 570.441 705.237 565.011 717.933 561.132L710.527 642.585C678.362 651.894 638.579 646.464 622.708 642.585L616.36 561.132Z" fill="#94B754"/>
<path d="M594.884 536.802C619.594 547.733 682.898 563.037 738.441 536.802C712.703 526.929 647.959 513.107 594.884 536.802Z" fill="#749B2E"/>
<path d="M716.875 689.129C709.469 692.303 668.205 708.17 617.418 689.129C615.667 688.351 612.95 686.565 610.866 683.84L612.127 697.592C659.529 719.595 705.237 706.76 722.166 697.592V685.997C721.026 686.987 719.333 688.076 716.875 689.129Z" fill="#94B754"/>
<path d="M717.933 561.132C705.237 565.011 667.147 570.441 616.36 561.132L622.708 642.585C638.579 646.464 678.362 651.894 710.527 642.585L717.933 561.132Z" fill="#EEEEEE"/>
<path d="M741.211 508.241C687.885 526.859 619.534 515.999 592.024 508.241C592.865 516.592 593.84 526.318 594.884 536.802C647.959 513.107 712.703 526.929 738.441 536.802L741.211 508.241Z" fill="#CCCCCC"/>
<path d="M592.024 508.241C619.534 515.999 687.885 526.859 741.211 508.241C747.559 506.831 759.621 502.317 757.082 495.547C755.405 491.078 751.793 490.358 748.617 490.892C746.983 491.167 745.464 491.775 744.385 492.374C718.639 502.599 651.064 516.492 586.734 490.258C583.913 490.258 578.27 491.739 578.27 497.663C578.27 503.587 587.439 507.183 592.024 508.241Z" fill="#B6B6B6"/>
<path d="M586.734 490.258C651.064 516.492 718.639 502.599 744.385 492.374C745.464 491.775 746.983 491.167 748.617 490.892C747.559 466.351 729.572 417.691 666.089 419.384C602.605 421.076 586.734 467.339 586.734 490.258Z" fill="#BDBDBD"/>
<path fill-rule="evenodd" clip-rule="evenodd" d="M777.228 297.421C823.737 325.328 867.189 317.181 875.047 315.398C877.655 314.807 879.517 314.042 880.817 313.274C882.651 312.191 883.367 311.104 883.479 310.495L923.791 169.479C864.422 185.241 804.926 158.747 782.599 143.53C778.007 199.091 771.506 275.874 770.348 282.174C769.731 285.533 770.474 288.551 771.74 291.035C773.297 294.091 775.646 296.339 777.228 297.421ZM799.323 171.341C847.591 189.677 886.035 191.221 899.224 189.701L877.217 268.473C843.899 271.815 805.753 259.283 790.844 252.599L799.323 171.341Z" fill="#94B754"/>
<path d="M782.599 143.53C804.926 158.747 864.422 185.241 923.791 169.479C900.262 155.116 839.083 129.819 782.599 143.53Z" fill="#749B2E"/>
<path d="M875.047 315.398C867.189 317.181 823.737 325.328 777.228 297.421C775.646 296.339 773.297 294.091 771.74 291.035L770.495 304.788C813.138 334.996 860.414 330.635 878.721 324.678L880.817 313.274C879.517 314.042 877.655 314.807 875.047 315.398Z" fill="#94B754"/>
<path d="M899.224 189.701C886.035 191.221 847.591 189.677 799.323 171.341L790.844 252.599C805.753 259.283 843.899 271.815 877.217 268.473L899.224 189.701Z" fill="#EEEEEE"/>
<path d="M931.678 141.888C875.865 150.561 810.603 127.524 784.949 114.922C784.267 123.288 783.467 133.03 782.599 143.53C839.083 129.819 900.262 155.116 923.791 169.479L931.678 141.888Z" fill="#CCCCCC"/>
<path d="M784.949 114.922C810.603 127.524 875.865 150.561 931.678 141.888C938.177 141.649 950.856 139.39 949.582 132.272C948.741 127.574 945.318 126.213 942.099 126.164C940.441 126.139 938.838 126.462 937.668 126.856C910.498 132.26 841.525 133.709 782.997 96.2792C780.222 95.7692 774.404 96.2058 773.333 102.032C772.262 107.858 780.631 113.053 784.949 114.922Z" fill="#B6B6B6"/>
<path d="M782.997 96.2792C841.525 133.709 910.498 132.26 937.668 126.856C938.838 126.462 940.441 126.139 942.099 126.164C945.494 101.836 936.599 50.7264 873.855 40.9161C811.111 31.1057 787.139 73.7372 782.997 96.2792Z" fill="#BDBDBD"/>
</svg>
