<svg width="946" height="645" viewBox="0 0 946 645" fill="none" xmlns="http://www.w3.org/2000/svg">
<path fill-rule="evenodd" clip-rule="evenodd" d="M41.5248 623.736C92.4775 642.328 133.6 626.098 140.979 622.859C143.427 621.785 145.11 620.68 146.241 619.68C147.837 618.269 148.334 617.066 148.329 616.447L161.2 470.348C105.891 497.071 42.4542 482.326 17.6494 471.613C23.6648 527.038 31.8249 603.663 31.8814 610.068C31.9115 613.483 33.2126 616.305 34.9261 618.505C37.0344 621.21 39.767 622.973 41.5248 623.736ZM39.3385 495.753C90.2055 504.614 128.246 498.848 140.908 494.858L134.22 576.373C102.138 585.965 62.3091 580.885 46.4046 577.147L39.3385 495.753Z" fill="#D66A8A"/>
<path d="M17.6494 471.613C42.4542 482.326 105.891 497.071 161.2 470.348C135.377 460.702 70.5132 447.451 17.6494 471.613Z" fill="#C0365F"/>
<path d="M140.979 622.859C133.6 626.098 92.4775 642.328 41.5248 623.736C39.767 622.973 37.0344 621.21 34.9261 618.505L36.3093 632.245C83.9025 653.829 129.496 640.592 146.343 631.275L146.241 619.68C145.11 620.68 143.427 621.785 140.979 622.859Z" fill="#D66A8A"/>
<path d="M140.908 494.858C128.246 498.848 90.2055 504.614 39.3385 495.753L46.4046 577.147C62.3091 580.885 102.138 585.965 134.22 576.373L140.908 494.858Z" fill="#EEEEEE"/>
<path d="M163.719 441.763C110.559 460.85 42.1147 450.593 14.5379 443.078C15.4523 451.422 16.5125 461.139 17.6494 471.613C70.5132 447.451 135.377 460.702 161.2 470.348L163.719 441.763Z" fill="#CCCCCC"/>
<path d="M14.5379 443.078C42.1147 450.593 110.559 460.85 163.719 441.763C170.054 440.297 182.076 435.678 179.477 428.93C177.761 424.476 174.142 423.788 170.972 424.35C169.34 424.639 167.826 425.26 166.753 425.869C141.098 436.321 73.6481 450.809 9.08926 425.143C6.26787 425.168 0.638156 426.698 0.690371 432.622C0.742587 438.545 9.94379 442.061 14.5379 443.078Z" fill="#B6B6B6"/>
<path d="M9.08926 425.143C73.6481 450.809 141.098 436.321 166.753 425.869C167.826 425.26 169.34 424.639 170.972 424.35C169.697 399.819 151.282 351.32 87.816 353.572C24.3497 355.824 8.88723 402.224 9.08926 425.143Z" fill="#BDBDBD"/>
<path fill-rule="evenodd" clip-rule="evenodd" d="M411.438 285.641C464.262 297.948 503.126 276.873 510.059 272.768C512.359 271.406 513.897 270.107 514.899 268.978C516.314 267.384 516.662 266.13 516.582 265.516L511.728 118.931C460.048 152.133 395.295 145.152 369.379 137.511C382.039 191.805 399.387 266.885 400.216 273.237C400.658 276.623 402.29 279.268 404.256 281.244C406.676 283.676 409.601 285.096 411.438 285.641ZM393.823 158.857C445.387 161.515 482.454 151.2 494.542 145.711L497.74 227.437C467.05 240.83 426.899 240.595 410.66 238.803L393.823 158.857Z" fill="#D66A8A"/>
<path d="M369.379 137.511C395.295 145.152 460.048 152.133 511.728 118.931C484.929 112.472 418.94 107.146 369.379 137.511Z" fill="#C0365F"/>
<path d="M510.059 272.768C503.126 276.873 464.262 297.948 411.438 285.641C409.601 285.096 406.676 283.676 404.256 281.244L407.287 294.717C457.138 310.4 500.8 291.757 516.4 280.475L514.899 268.978C513.897 270.107 512.359 271.406 510.059 272.768Z" fill="#D66A8A"/>
<path d="M494.542 145.711C482.454 151.2 445.387 161.515 393.823 158.857L410.66 238.803C426.899 240.595 467.05 240.83 497.74 227.437L494.542 145.711Z" fill="#EEEEEE"/>
<path d="M510.778 90.2517C460.31 115.615 391.129 113.692 362.846 109.56C364.761 117.732 366.986 127.251 369.379 137.511C418.94 107.146 484.929 112.472 511.728 118.931L510.778 90.2517Z" fill="#CCCCCC"/>
<path d="M362.846 109.56C391.129 113.692 460.31 115.615 510.778 90.2517C516.89 88.0315 528.267 81.9949 524.873 75.6104C522.632 71.3958 518.956 71.1496 515.877 72.0902C514.291 72.5744 512.864 73.3732 511.872 74.107C487.666 87.5788 422.457 110.101 355.273 92.4133C352.475 92.7785 347.071 94.9774 347.838 100.851C348.605 106.725 358.163 109.105 362.846 109.56Z" fill="#B6B6B6"/>
<path d="M355.273 92.4133C422.457 110.101 487.666 87.5788 511.872 74.107C512.864 73.3732 514.291 72.5744 515.877 72.0902C511.651 47.8921 487.518 1.9698 424.787 11.8645C362.057 21.7593 352.307 69.6865 355.273 92.4133Z" fill="#BDBDBD"/>
<path fill-rule="evenodd" clip-rule="evenodd" d="M768.947 560.405C816.574 586.358 859.651 576.415 867.428 574.308C870.009 573.609 871.838 572.767 873.105 571.946C874.893 570.788 875.563 569.672 875.649 569.059L910.076 426.492C851.412 444.704 790.868 420.701 767.929 406.423C765.647 462.127 762.336 539.114 761.441 545.457C760.963 548.838 761.831 551.822 763.199 554.252C764.882 557.24 767.322 559.389 768.947 560.405ZM785.793 433.517C834.78 449.834 873.255 449.782 886.369 447.716L867.649 527.333C834.499 532.054 795.865 521.116 780.692 515.057L785.793 433.517Z" fill="#D66A8A"/>
<path d="M767.929 406.423C790.868 420.701 851.412 444.704 910.076 426.492C885.972 413.118 823.796 390.38 767.929 406.423Z" fill="#C0365F"/>
<path d="M867.428 574.308C859.651 576.415 816.574 586.358 768.947 560.405C767.322 559.389 764.882 557.24 763.199 554.252L762.526 568.045C806.386 596.458 853.439 590.139 871.484 583.427L873.105 571.946C871.838 572.767 870.009 573.609 867.428 574.308Z" fill="#D66A8A"/>
<path d="M886.369 447.716C873.255 449.782 834.78 449.834 785.793 433.517L780.692 515.057C795.865 521.116 834.499 532.054 867.649 527.333L886.369 447.716Z" fill="#EEEEEE"/>
<path d="M916.812 398.598C861.407 409.578 795.245 389.27 769.09 377.743C768.756 386.129 768.361 395.896 767.929 406.423C823.796 390.38 885.972 413.118 910.076 426.492L916.812 398.598Z" fill="#CCCCCC"/>
<path d="M769.09 377.743C795.245 389.27 861.407 409.578 916.812 398.598C923.295 398.089 935.87 395.306 934.302 388.248C933.266 383.588 929.79 382.37 926.571 382.455C924.914 382.499 923.325 382.888 922.173 383.33C895.25 389.856 826.397 394.166 766.366 359.197C763.572 358.802 757.778 359.48 756.949 365.346C756.121 371.211 764.698 376.054 769.09 377.743Z" fill="#B6B6B6"/>
<path d="M766.366 359.197C826.397 394.166 895.25 389.856 922.173 383.33C923.325 382.888 924.914 382.499 926.571 382.455C928.954 358.007 917.946 307.31 854.849 300.112C791.752 292.913 769.57 336.502 766.366 359.197Z" fill="#BDBDBD"/>
</svg>
