<svg width="163" height="106" viewBox="0 0 163 106" fill="none" xmlns="http://www.w3.org/2000/svg">
<path d="M19.58 104.225L11.9483 67.1822L3.38939 70.9313L1.78079 63.1117L27.2816 51.9415L28.8902 59.7611L20.3313 63.5102L27.963 100.552L19.58 104.225ZM54.6902 89.5438C48.0658 92.4455 41.2273 91.668 38.2999 84.985C37.8634 83.9884 37.4927 82.8232 37.2393 81.6067L33.0012 61.2442C31.5065 54.0036 34.0911 48.26 41.419 45.0501C48.0433 42.1485 54.9075 42.9846 57.8349 49.6676C58.2714 50.6641 58.6164 51.7707 58.8698 52.9873L63.1079 73.3497C64.6026 80.5904 61.9594 86.3597 54.6902 89.5438ZM51.7332 82.3148C54.3126 81.185 55.1362 79.0774 54.5597 76.3255L50.2334 55.4428C50.1452 54.9224 50.0241 54.4864 49.8443 54.076C48.8942 51.907 46.8967 51.175 44.3173 52.3048C41.9724 53.332 40.9215 55.3993 41.5238 58.2098L45.8501 79.0926C45.9198 79.4114 46.0337 79.9903 46.2905 80.5766C47.2406 82.7456 49.2711 83.3933 51.7332 82.3148ZM70.8898 81.7491L61.6496 36.8872L73.5499 31.6744C80.2915 28.7214 85.6098 30.6539 88.1006 36.3403C88.5372 37.3369 88.9078 38.5021 89.1869 39.7773L93.1827 59.2676C94.8538 67.5489 91.9353 72.5305 83.9627 76.0228L70.8898 81.7491ZM77.6643 70.2575L81.4747 68.5884C84.4059 67.3044 85.3506 65.6329 84.6601 62.3021L80.6202 42.5515C80.455 41.8553 80.2825 41.3021 80.0514 40.7745C79.204 38.8399 77.7966 38.3385 75.4517 39.3656L71.6412 41.0347L77.6643 70.2575ZM98.3812 20.7975L109.461 15.9443L127.201 57.0828L119.17 60.6008L116.143 53.053L106.94 57.0845L107.27 65.8135L99.1212 69.3828L98.3812 20.7975ZM106.614 48.8429L113.238 45.9412L105.787 27.3356L106.614 48.8429ZM135.53 53.4344L131.803 34.8747L116.5 12.8608L124.766 9.24013L133.505 22.81L135.846 4.38686L144.522 0.586427L140.186 31.2027L143.913 49.7624L135.53 53.4344Z" fill="white"/>
</svg>
