<svg width="991" height="468" viewBox="0 0 991 468" fill="none" xmlns="http://www.w3.org/2000/svg">
<path d="M1433.61 465.023L1438 250.873H1291.5H3.55303L13.124 467.815H70.1509L87.6977 338.607L102.054 338.585L116.411 338.562L161.075 338.492L1358.64 336.613L1371.8 465.023H1433.61Z" fill="#EEEEEE"/>
<path d="M102.054 338.585V364.13H116.411V338.562L102.054 338.585Z" fill="#EEEEEE"/>
<path d="M31.8673 240.505H68.1572L89.482 189.859L88.9608 189.03L31.8673 240.505Z" fill="#EEEEEE"/>
<path d="M83.7098 234.72L109.264 210.954L98.6351 198.632L83.7098 234.72Z" fill="#EEEEEE"/>
<path d="M125.728 181.085C126.422 174.148 133.446 171.373 140.479 170.535H117.397L125.728 181.085Z" fill="#EEEEEE"/>
<path d="M174.235 240.505H257.271C253.321 235.637 253.508 225.562 254.392 219.768C265.882 197.832 281.42 181.197 293.949 170.535H251.999C255.592 171.659 262.258 176.699 260.18 187.865C260.243 189.685 259.939 191.43 259.177 193.049C258.114 198.765 253.993 210.117 246.017 209.798C238.042 209.479 178.062 209.665 149.07 209.798L174.235 240.505Z" fill="#EEEEEE"/>
<path d="M114.038 216.488L89.482 240.505H134.755L114.038 216.488Z" fill="#EEEEEE"/>
<path d="M837.821 184.028C828.344 189.638 816.149 193.232 807.115 194.981V212.988H945.064L1132.93 168.079L1164.35 160.566H1044L837.821 184.028Z" fill="#EEEEEE"/>
<path d="M1006.34 212.988H1306L1132.93 179.179L1006.34 212.988Z" fill="#EEEEEE"/>
<path d="M89.482 240.505H81.3173H68.1572H31.8673L88.9608 189.03L83.7098 180.686L3.55303 250.873H1291.5V243.296H892.854H818.281H807.115V212.988V194.981C806.23 195.152 805.376 195.306 804.558 195.442C804.349 196.418 804.137 197.352 803.924 198.233L800.335 220.565H791.163L787.5 201L756.5 212.988C755.194 224.607 753.728 235.284 752.48 243.296H712.203H263.165C260.582 243.296 258.668 242.226 257.271 240.505H174.235H171.045H134.755H89.482Z" fill="#D4D4D4"/>
<path d="M150.98 170.535L155.437 158.753H108.092L117.397 170.535H140.479C144.32 170.078 148.164 170.199 150.98 170.535Z" fill="#D4D4D4"/>
<path d="M165.586 170.535H216.491L206.773 158.753H170.254L165.586 170.535Z" fill="#D4D4D4"/>
<path d="M310.223 158.753H240.434C243.749 161.489 248.176 165.733 251.999 170.535H293.949C300.554 164.916 306.323 160.955 310.223 158.753Z" fill="#D4D4D4"/>
<path d="M116.411 338.562V364.13C118.804 361.338 126.62 355.755 138.743 355.755H161.075V338.492L116.411 338.562Z" fill="#D4D4D4"/>
<path d="M259.177 193.049C258.38 196.904 254.631 204.694 246.017 205.013C237.404 205.332 175.432 205.45 145.522 205.47L149.07 209.798C178.062 209.665 238.042 209.479 246.017 209.798C253.993 210.117 258.114 198.765 259.177 193.049Z" fill="#D4D4D4"/>
<path d="M1132.93 179.179L1306 212.988V186L1179 166.874L1132.93 179.179Z" fill="#D4D4D4"/>
<path d="M254.392 219.768C253.508 225.562 253.321 235.637 257.271 240.505C258.668 242.226 260.582 243.296 263.165 243.296H712.203C706.9 224.406 697.687 185.631 696.373 159.152C695.534 157.291 689.711 153.569 673.121 153.569H332.156C328.301 153.702 318.517 154.925 310.223 158.753C306.323 160.955 300.554 164.916 293.949 170.535C281.42 181.197 265.882 197.832 254.392 219.768Z" fill="#EA9BAE"/>
<path d="M698.605 136.022C697.702 138.671 697.03 141.588 696.65 144.795C696.165 148.892 696.105 153.768 696.373 159.152C697.687 185.631 706.9 224.406 712.203 243.296H752.48C753.728 235.284 755.194 224.607 756.5 212.988C758.306 196.92 759.806 179.051 759.996 163.937C760.152 151.541 759.427 140.999 757.266 134.826C756.084 131.449 754.637 128.545 753.018 126.052C745.455 114.413 734.137 111.766 728.553 112.095C720.363 112.787 704.527 118.643 698.605 136.022Z" fill="#EE8DA5"/>
<path d="M698.605 136.022C704.527 118.643 720.363 112.787 728.553 112.095C734.137 111.766 745.455 114.413 753.018 126.052C754.301 112.36 751.204 84.259 728.553 81.3878C700.239 77.7987 695.774 117.279 698.605 136.022Z" fill="#DA7A91"/>
<path d="M756.5 212.988L787.5 201C785.373 184.783 782.39 153.569 796.746 153.569C810.253 153.569 807.875 179.924 804.558 195.442C805.376 195.306 806.23 195.152 807.115 194.981C816.149 193.232 828.344 189.638 837.821 184.028C845.087 179.726 850.755 174.24 852.178 167.491C852.625 165.369 852.653 163.122 852.178 160.747C848.03 140.01 818.703 143.865 804.558 148.384L797.544 150.833L782.277 156.161L781.592 156.4L759.996 163.937C759.806 179.051 758.306 196.92 756.5 212.988Z" fill="#DA7A91"/>
<path d="M796.746 153.569C782.39 153.569 785.373 184.783 787.5 201L791.163 220.565H800.335L803.924 198.233C804.137 197.352 804.349 196.418 804.558 195.442C807.875 179.924 810.253 153.569 796.746 153.569Z" fill="#EA9BAE"/>
<path d="M781.592 156.4L782.277 156.161L797.544 150.833C799.405 140.446 800.255 119.831 788.77 120.469C777.285 121.107 779.199 144.689 781.592 156.4Z" fill="#DA7A91"/>
<path d="M119.202 17.1827C117.926 21.9682 106.441 27.95 100.858 30.3427L171.578 116.082L182.103 128.844L206.773 158.753L216.491 170.535L236.048 194.245C241.631 198.366 254.073 203.896 259.177 193.049C259.939 191.43 260.243 189.685 260.18 187.865C260.18 177.5 256.393 176.055 251.999 170.535C248.176 165.733 243.749 161.489 240.434 158.753L119.202 17.1827Z" fill="#979797"/>
<path d="M37.4504 69.304L34.6589 71.0193C31.7876 51.2394 16.1815 47.3578 8.7373 47.8895C-3.38591 53.9511 -0.301939 65.835 2.75545 71.0193L83.7098 180.686L88.9608 189.03L89.482 189.859L96.8701 172.312C99.6616 170.717 105.803 169.201 108.036 175.901L98.6351 198.632L109.264 210.954L114.038 216.488L134.755 240.505H171.045H174.235L149.07 209.798L145.522 205.47L136.527 194.494L132.305 189.342L130.767 187.466L125.728 181.085L117.397 170.535L108.092 158.753L37.4504 69.304Z" fill="#979797"/>
<path d="M81.3173 240.505L83.7098 234.72L98.6351 198.632L108.036 175.901C105.803 169.201 99.6616 170.717 96.8701 172.312L89.482 189.859L68.1572 240.505H81.3173Z" fill="#AAAAAA"/>
<path d="M89.482 240.505L114.038 216.488L109.264 210.954L83.7098 234.72L81.3173 240.505H89.482Z" fill="#AAAAAA"/>
<path d="M150.308 172.312L132.305 189.342L136.527 194.494L153.498 177.895L150.308 172.312Z" fill="#979797"/>
<path d="M150.308 172.312L153.498 177.895C157.412 181.085 161.244 179.224 162.67 177.895L165.586 170.535L170.254 158.753L182.103 128.844L171.578 116.082L155.437 158.753L150.98 170.535L150.308 172.312Z" fill="#979797"/>
<path d="M1280.08 126.052L852.178 167.491C850.755 174.24 845.087 179.726 837.821 184.028L1044 160.566L1273.7 134.427L1164.35 160.566L1132.93 168.079L945.064 212.988L818.281 243.296H892.854L1006.34 212.988L1132.93 179.179L1179 166.874L1284.07 138.813C1291.4 139.452 1298.82 137.484 1301.61 136.421C1311.59 133.015 1312.61 128.002 1311.3 124.457C1310.89 123.353 1310.25 122.392 1309.59 121.666C1300.34 115.604 1286.06 122.064 1280.08 126.052Z" fill="#494949"/>
<path d="M34.6589 71.0193L37.4504 69.304L100.858 30.3427C106.441 27.95 117.926 21.9682 119.202 17.1827C117.926 2.50724 106.973 -0.36405 101.656 0.0347398C75.7341 13.4607 20.8605 41.8279 8.7373 47.8895C16.1815 47.3578 31.7876 51.2394 34.6589 71.0193Z" fill="#EA9BAE"/>
</svg>
