<svg width="245" height="464" viewBox="0 0 245 464" fill="none" xmlns="http://www.w3.org/2000/svg">
<path d="M237.752 366.248L213.512 80.3756C201.532 77.7774 171.246 74.5138 144.279 79.8382C137.454 120.836 133.356 237.971 169.772 375.859C198.306 377.243 226.885 370.495 237.752 366.248Z" fill="#B1D471"/>
<path d="M153.301 5.4203C150.243 26.3994 148.044 47.3597 146.582 68.1392C146.892 68.0759 147.203 68.0137 147.515 67.9527C169.941 63.57 198.092 65.4133 212.417 67.4526L207.768 12.6276C188.02 1.97812 168.838 1.72058 153.301 5.4203Z" fill="#B1D471"/>
<path d="M243.297 431.646L238.748 377.996C227.421 382.448 201.48 389.263 174.076 387.83C174.039 387.828 174.002 387.826 173.965 387.824C179.783 412.136 185.656 432.263 190.75 447.087C215.415 448.55 234.85 438.726 243.297 431.646Z" fill="#B1D471"/>
<path d="M238.748 377.996L237.752 366.248C226.885 370.495 198.306 377.243 169.772 375.859C163.336 375.547 159.644 374.671 153.056 373.43L154.052 385.178C160.65 386.641 167.35 387.473 173.965 387.824L174.076 387.83C201.48 389.263 227.421 382.448 238.748 377.996Z" fill="#D66A8A"/>
<path d="M212.417 67.4526C198.092 65.4133 169.941 63.57 147.515 67.9527C147.203 68.0137 146.892 68.0759 146.582 68.1392C139.471 69.5949 132.971 71.6943 127.721 74.6341L128.65 85.5991C134.841 83.3217 137.892 81.0993 144.279 79.8382C171.246 74.5138 201.532 77.7774 213.512 80.3756L212.417 67.4526Z" fill="#D66A8A"/>
<path d="M123.072 19.8091L127.721 74.6341C132.971 71.6943 139.471 69.5949 146.582 68.1392C148.044 47.3597 150.243 26.3994 153.301 5.4203C139.798 8.6356 129.048 14.8397 123.072 19.8091Z" fill="#94B754"/>
<path d="M128.65 85.5991L153.056 373.43C159.644 374.671 163.336 375.547 169.772 375.859C133.356 237.971 137.454 120.836 144.279 79.8382C137.892 81.0993 134.841 83.3217 128.65 85.5991Z" fill="#94B754"/>
<path d="M154.052 385.178L158.601 438.828C169.92 444.052 180.764 446.494 190.75 447.087C185.656 432.263 179.783 412.136 173.965 387.824C167.35 387.473 160.65 386.641 154.052 385.178Z" fill="#94B754"/>
<path d="M115.752 379.248L91.5124 93.3756C79.5325 90.7774 49.2461 87.5138 22.2794 92.8382C15.4537 133.836 11.3561 250.971 47.7724 388.859C76.3062 390.243 104.885 383.495 115.752 379.248Z" fill="#F5F5F5"/>
<path d="M31.3007 18.4203C28.2435 39.3994 26.0441 60.3597 24.5823 81.1392C24.892 81.0759 25.2028 81.0137 25.5147 80.9527C47.9411 76.57 76.0917 78.4133 90.4166 80.4526L85.768 25.6276C66.0199 14.9781 46.8379 14.7206 31.3007 18.4203Z" fill="#F5F5F5"/>
<path d="M121.297 444.646L116.748 390.996C105.421 395.448 79.48 402.263 52.0764 400.83C52.0392 400.828 52.002 400.826 51.9648 400.824C57.7835 425.136 63.6556 445.263 68.75 460.087C93.415 461.55 112.85 451.726 121.297 444.646Z" fill="#F5F5F5"/>
<path d="M116.748 390.996L115.752 379.248C104.885 383.495 76.3062 390.243 47.7724 388.859C41.3362 388.547 37.6437 387.671 31.0557 386.43L32.0519 398.178C38.6504 399.641 45.3497 400.473 51.9648 400.824L52.0764 400.83C79.48 402.263 105.421 395.448 116.748 390.996Z" fill="#D66A8A"/>
<path d="M90.4166 80.4526C76.0917 78.4133 47.9411 76.57 25.5147 80.9527C25.2028 81.0137 24.892 81.0759 24.5823 81.1392C17.4709 82.5949 10.9712 84.6943 5.72058 87.6341L6.65031 98.5991C12.8412 96.3217 15.8918 94.0993 22.2794 92.8382C49.2461 87.5138 79.5325 90.7774 91.5124 93.3756L90.4166 80.4526Z" fill="#D66A8A"/>
<path d="M1.07191 32.8091L5.72058 87.6341C10.9712 84.6943 17.4709 82.5949 24.5823 81.1392C26.0441 60.3597 28.2435 39.3994 31.3007 18.4203C17.7979 21.6356 7.04806 27.8397 1.07191 32.8091Z" fill="#CECECE"/>
<path d="M6.65031 98.5991L31.0557 386.43C37.6437 387.671 41.3362 388.547 47.7724 388.859C11.3561 250.971 15.4537 133.836 22.2794 92.8382C15.8918 94.0993 12.8412 96.3217 6.65031 98.5991Z" fill="#CECECE"/>
<path d="M32.0519 398.178L36.6009 451.828C47.9199 457.052 58.7636 459.494 68.75 460.087C63.6556 445.263 57.7835 425.136 51.9648 400.824C45.3497 400.473 38.6504 399.641 32.0519 398.178Z" fill="#CECECE"/>
</svg>
